<?xml version="1.0" standalone="no"?>
<!DOCTYPE svg PUBLIC "-//W3C//DTD SVG 1.1//EN" "http://www.w3.org/Graphics/SVG/1.1/DTD/svg11.dtd" >
<svg xmlns="http://www.w3.org/2000/svg">
<metadata>Generated by IcoMoon</metadata>
<defs>
<font id="kejar-matrikulasi" horiz-adv-x="1024">
<font-face units-per-em="1024" ascent="960" descent="-64" />
<missing-glyph horiz-adv-x="1024" />
<glyph unicode="&#x20;" horiz-adv-x="512" d="" />
<glyph unicode="&#xe900;" glyph-name="kejar-add" d="M512 768c-19.637 0-35.555-15.919-35.555-35.555v-248.889h-248.889c-19.637 0-35.555-15.919-35.555-35.555 0-19.635 15.919-35.553 35.555-35.553h248.889v-248.893c0-19.635 15.919-35.553 35.555-35.553s35.553 15.918 35.553 35.553v248.893h248.893c19.635 0 35.553 15.918 35.553 35.553 0 19.637-15.918 35.555-35.553 35.555h-248.893v248.889c0 19.637-15.918 35.555-35.553 35.555z" />
<glyph unicode="&#xe901;" glyph-name="kejar-application" d="M320.001 629.334c-17.673 0-32 14.327-32 32v149.333h-32c-11.782 0-21.334-9.551-21.334-21.333v-682.669c0-11.781 9.551-21.33 21.334-21.33h511.999c11.781 0 21.335 9.549 21.335 21.33v501.649c0 16.974-6.743 33.252-18.744 45.255l-138.353 138.353c-6.897 6.894-15.201 12.052-24.238 15.195v-145.783c0-17.673-14.326-32-32-32s-32 14.327-32 32v149.333h-63.999v-149.333c0-17.673-14.327-32-32-32s-32 14.327-32 32v149.333h-64v-149.333c0-17.673-14.327-32-32-32zM608 872.93c26.153-4.354 50.499-16.761 69.489-35.753l138.353-138.353c24.008-24.005 37.494-56.562 37.494-90.51v-501.649c0-47.124-38.205-85.33-85.335-85.33h-511.999c-47.128 0-85.334 38.205-85.334 85.33v682.669c0 47.128 38.205 85.333 85.334 85.333h330.982c7.086 0 14.116-0.588 21.018-1.737zM309.334 405.335c0 41.236 33.429 74.665 74.666 74.665h255.999c41.236 0 74.665-33.429 74.665-74.665v-170.67c0-41.236-33.428-74.665-74.665-74.665h-255.999c-41.238 0-74.666 33.428-74.666 74.665v170.67zM384.001 416c-5.891 0-10.666-4.777-10.666-10.665v-170.67c0-5.888 4.775-10.665 10.666-10.665h255.999c5.893 0 10.665 4.777 10.665 10.665v170.67c0 5.888-4.772 10.665-10.665 10.665h-255.999z" />
<glyph unicode="&#xe902;" glyph-name="kejar-arrow-left" d="M534.625 747.96c12.498-12.497 12.498-32.758 0-45.255l-222.704-222.706h498.743c17.674 0 32-14.327 32-31.999 0-17.674-14.326-32-32-32h-498.743l222.704-222.705c12.498-12.498 12.498-32.758 0-45.256-12.493-12.498-32.756-12.498-45.253 0l-277.334 277.33c-12.497 12.498-12.497 32.76 0 45.257l277.334 277.334c12.497 12.497 32.76 12.497 45.253 0z" />
<glyph unicode="&#xe903;" glyph-name="kejar-arrow-right" d="M489.373 747.96c12.497 12.497 32.76 12.497 45.253 0l277.335-277.334c12.498-12.497 12.498-32.759 0-45.257l-277.335-277.33c-12.493-12.498-32.756-12.498-45.253 0s-12.497 32.758 0 45.256l222.707 222.705h-498.746c-17.673 0-32 14.326-32 32s14.327 31.999 32 31.999h498.746l-222.707 222.706c-12.497 12.497-12.497 32.758 0 45.255z" />
<glyph unicode="&#xe904;" glyph-name="kejar-arsip-asesmen-bold" d="M512.092 188.826l194.867-117.862c35.686-21.596 79.355 10.332 69.965 50.714l-51.651 221.629 172.324 149.321c31.462 27.234 14.556 78.886-26.762 82.173l-226.796 19.252-88.75 209.423c-15.964 38.034-70.432 38.034-86.396 0l-88.746-208.953-226.797-19.252c-41.321-3.287-58.225-54.938-26.765-82.173l172.328-149.319-51.652-221.629c-9.391-40.381 34.278-72.315 69.964-50.714l194.866 117.391z" />
<glyph unicode="&#xe905;" glyph-name="kejar-arsip-asesmen" d="M479.067 243.645l-160.277-96.553 42.452 182.159c5.39 23.127-2.47 47.34-20.419 62.894l-141.698 122.779 186.434 15.825c23.634 2.007 44.221 16.92 53.494 38.752l73.019 171.928 73.037-172.349c9.262-21.857 29.865-36.792 53.514-38.799l186.435-15.826-141.696-122.78c-17.951-15.549-25.81-39.762-20.419-62.894l42.429-182.062-160.159 96.865c-20.332 12.298-45.796 12.319-66.147 0.061zM512.092 188.826l194.867-117.862c35.686-21.596 79.355 10.332 69.965 50.714l-51.656 221.629 172.329 149.321c31.462 27.234 14.556 78.886-26.762 82.173l-226.796 19.252-88.75 209.423c-15.964 38.034-70.432 38.034-86.397 0l-88.746-208.953-226.796-19.252c-41.321-3.287-58.225-54.939-26.765-82.173l172.327-149.319-51.651-221.629c-9.391-40.381 34.277-72.315 69.964-50.714l194.867 117.391z" />
<glyph unicode="&#xe906;" glyph-name="kejar-back" d="M382.705 811.96c12.497 12.497 32.758 12.497 45.255 0l234.665-234.666c12.498-12.497 12.498-32.758 0-45.255s-32.758-12.497-45.256 0l-180.037 180.039v-306.692c0-53.023 42.98-96 95.997-96h320c17.674 0 32-14.326 32-32s-14.326-32-32-32h-320c-88.363 0-159.997 71.634-159.997 160v306.692l-180.040-180.039c-12.496-12.497-32.758-12.497-45.255 0s-12.497 32.758 0 45.255l234.666 234.666z" />
<glyph unicode="&#xe907;" glyph-name="kejar-belum-dikerjakan-2" d="M511.998 874.665c-235.52 0-426.666-191.146-426.666-426.665s191.146-426.67 426.666-426.67c235.522 0 426.667 191.15 426.667 426.67 0 235.519-191.145 426.665-426.667 426.665zM554.665 192c0-23.567-19.103-42.67-42.667-42.67s-42.666 19.103-42.666 42.67c0 23.562 19.102 42.665 42.666 42.665s42.667-19.103 42.667-42.665zM642.985 479.999l-38.4-39.254c-21.335-21.76-36.695-41.385-44.375-72.105-2.314-9.272-4.045-19.333-4.915-30.981-0.845-11.284-5.125-22.154-13.128-30.157-16.66-16.66-43.677-16.66-60.339 0-8.002 8.003-12.496 18.852-12.496 30.172v3.656c0 19.63 3.413 38.4 9.386 55.895 8.534 24.745 22.614 46.935 40.532 64.854l52.91 53.76c19.625 18.774 29.010 46.934 23.465 76.8-5.545 30.72-29.44 56.746-59.305 65.28-47.362 13.226-91.309-13.654-105.389-54.186-5.12-15.787-18.347-27.734-34.987-27.734h-12.8c-24.746 0-41.813 23.894-34.986 47.786 18.346 62.72 71.68 110.507 137.814 120.747 64.854 10.24 126.718-23.467 165.118-76.8 50.35-69.547 35.415-144.214-8.105-187.734z" />
<glyph unicode="&#xe908;" glyph-name="kejar-belum-dikerjakan" d="M127.007 83.932h769.986c32 0 51.942 34.488 36.152 62.331l-385.203 664.856c-16.205 27.841-56.095 27.841-71.885 0l-385.202-664.856c-15.79-27.843 4.155-62.331 36.152-62.331zM553.764 250.148c0-22.953-18.606-41.554-41.554-41.554-22.95 0-41.554 18.601-41.554 41.554 0 22.948 18.604 41.554 41.554 41.554 22.948 0 41.554-18.606 41.554-41.554zM512.21 374.912c-22.855 0-41.554 18.698-41.554 41.554v166.213c0 22.855 18.699 41.553 41.554 41.553s41.554-18.699 41.554-41.553v-166.213c0-22.856-18.698-41.554-41.554-41.554z" />
<glyph unicode="&#xe909;" glyph-name="kejar-belum-mengerjakan-small" d="M512 192.005c141.384 0 256 114.616 256 255.999 0 141.385-114.616 256-256 256s-256-114.615-256-256c0-141.383 114.615-255.999 256-255.999zM537.595 601.608c0 14.139-11.459 25.6-25.599 25.6-14.138 0-25.6-11.461-25.6-25.6v-204.797c0-14.141 11.462-25.6 25.6-25.6 14.14 0 25.599 11.459 25.599 25.6v204.797zM511.996 268.81c14.14 0 25.599 11.459 25.599 25.6 0 14.136-11.459 25.6-25.599 25.6-14.138 0-25.6-11.464-25.6-25.6 0-14.141 11.462-25.6 25.6-25.6z" />
<glyph unicode="&#xe90a;" glyph-name="kejar-belum-mengerjakan" d="M511.998 21.34c235.64 0 426.667 191.022 426.667 426.665 0 235.641-191.027 426.667-426.667 426.667-235.641 0-426.666-191.026-426.666-426.667 0-235.643 191.025-426.665 426.666-426.665zM554.665 704.005c0 23.564-19.103 42.667-42.667 42.667s-42.666-19.103-42.666-42.667v-341.335c0-23.562 19.102-42.665 42.666-42.665s42.667 19.103 42.667 42.665v341.335zM511.998 149.34c23.564 0 42.667 19.103 42.667 42.665s-19.103 42.665-42.667 42.665c-23.564 0-42.666-19.103-42.666-42.665s19.102-42.665 42.666-42.665z" />
<glyph unicode="&#xe90b;" glyph-name="kejar-bold" d="M665.933 457.946c26.714 27.639 42.334 64.384 42.334 107.388 0 46.416-13.619 91.109-51.554 122.722-36.143 30.119-86.46 41.545-144.713 41.545h-170.666c-25.92 0-46.933-21.013-46.933-46.933v-469.334c0-25.92 21.013-46.933 46.933-46.933h174.237c33.079-0.021 84.049-0.055 126.942 18.539 23.761 10.304 46.596 26.82 63.049 52.736 16.329 25.711 24.038 56.986 24.038 92.992 0 31.151-6.997 59.136-21.393 83.042-11.204 18.615-25.899 33.101-42.274 44.237zM388.268 260.267v140.8h123.732c40.414 0 73.468-5.35 94.98-17.003 9.963-5.393 16.521-11.644 20.813-18.773 4.271-7.095 7.94-17.775 7.94-34.624 0-22.656-4.783-35.383-9.412-42.675-4.501-7.087-11.085-12.57-21.146-16.93-23.206-10.061-55.36-10.795-93.175-10.795h-123.732zM388.268 494.933v140.8h123.732c48.41 0 72.764-9.906 84.621-19.789 10.082-8.401 17.779-22.39 17.779-50.611 0-22.243-8.785-37.79-23.893-49.118-16.457-12.343-43.034-21.282-78.507-21.282h-123.732z" />
<glyph unicode="&#xe90c;" glyph-name="kejar-bottom" d="M512 774.401c17.673 0 32-14.327 32-32v-498.744l222.707 222.707c12.497 12.493 32.755 12.493 45.252 0 12.497-12.497 12.497-32.759 0-45.257l-277.333-277.333c-12.497-12.497-32.755-12.497-45.252 0l-277.335 277.333c-12.497 12.497-12.497 32.759 0 45.257 12.497 12.493 32.758 12.493 45.255 0l222.706-222.707v498.744c0 17.673 14.327 32 32 32z" />
<glyph unicode="&#xe90d;" glyph-name="kejar-bullet" d="M170.667 661.333c23.564 0 42.667 19.103 42.667 42.667s-19.103 42.667-42.667 42.667c-23.564 0-42.667-19.103-42.667-42.667s19.103-42.667 42.667-42.667zM341.333 736c-17.673 0-32-14.327-32-32s14.327-32 32-32h512c17.673 0 32 14.327 32 32s-14.327 32-32 32h-512zM341.333 480c-17.673 0-32-14.327-32-32s14.327-32 32-32h512c17.673 0 32 14.327 32 32s-14.327 32-32 32h-512zM341.333 224c-17.673 0-32-14.327-32-32s14.327-32 32-32h512c17.673 0 32 14.327 32 32s-14.327 32-32 32h-512zM213.333 448c0-23.565-19.103-42.667-42.667-42.667s-42.667 19.102-42.667 42.667c0 23.565 19.103 42.667 42.667 42.667s42.667-19.102 42.667-42.667zM170.667 149.333c23.564 0 42.667 19.102 42.667 42.667s-19.103 42.667-42.667 42.667c-23.564 0-42.667-19.102-42.667-42.667s19.103-42.667 42.667-42.667z" />
<glyph unicode="&#xe90e;" glyph-name="kejar-close" d="M237.639 722.362c12.497 12.497 32.758 12.497 45.255 0l212.039-212.039 212.041 212.039c12.493 12.497 32.758 12.497 45.251 0 12.498-12.497 12.498-32.758 0-45.255l-212.035-212.040 212.035-212.037c12.498-12.498 12.498-32.758 0-45.256-12.493-12.498-32.758-12.498-45.251 0l-212.041 212.040-212.039-212.040c-12.497-12.498-32.758-12.498-45.255 0s-12.496 32.758 0 45.256l212.040 212.037-212.040 212.040c-12.496 12.496-12.496 32.758 0 45.255z" />
<glyph unicode="&#xe90f;" glyph-name="kejar-dot" d="M640 448c0-70.692-57.308-128-128-128s-128 57.308-128 128c0 70.692 57.308 128 128 128s128-57.308 128-128z" />
<glyph unicode="&#xe910;" glyph-name="kejar-download" d="M544 800c0 17.673-14.326 32-32 32s-31.999-14.327-31.999-32v-402.744l-105.373 105.372c-12.497 12.497-32.758 12.497-45.255 0s-12.497-32.758 0-45.255l160-159.998c12.497-12.498 32.759-12.498 45.257 0l160 159.998c12.493 12.497 12.493 32.758 0 45.255-12.498 12.497-32.763 12.497-45.256 0l-105.375-105.372v402.744zM192.006 416c0 17.674-14.327 32-32 32s-32-14.326-32-32v-256c0-53.018 42.981-96 96-96h575.994c53.018 0 96 42.982 96 96v256c0 17.674-14.326 32-32 32s-32-14.326-32-32v-256c0-17.674-14.326-32-32-32h-575.994c-17.673 0-32 14.326-32 32v256z" />
<glyph unicode="&#xe911;" glyph-name="kejar-dropdown" d="M811.959 555.961c12.497-12.497 12.497-32.756 0-45.254l-277.333-277.333c-12.497-12.497-32.755-12.497-45.252 0l-277.335 277.333c-12.497 12.497-12.497 32.757 0 45.254s32.758 12.497 45.255 0l254.706-254.704 254.707 254.704c12.497 12.497 32.755 12.497 45.252 0z" />
<glyph unicode="&#xe912;" glyph-name="kejar-edit" d="M665.758 780.351l-103.377-102.953-387.687-388.109c-9.481-9.489-14.694-21.862-14.694-35.418v-108.087c0-27.631 22.149-49.779 49.778-49.779h108.089c12.228 0 25.561 4.582 35.494 15.13l387.964 387.179 103.027 103.455c26.33 26.366 26.317 69.002-0.034 95.354l-83.2 83.2c-26.355 26.353-68.996 26.363-95.36 0.029zM715.861 735.066l83.2-83.2c1.37-1.37 1.37-3.509 0-4.879l-80.388-80.722-88.41 88.412 80.721 80.389c1.37 1.37 3.507 1.37 4.877 0zM673.442 520.986l-361.711-360.981h-87.731v88.085l360.973 361.367 88.469-88.471z" />
<glyph unicode="&#xe913;" glyph-name="kejar-exit" d="M202.666 746.666c0 5.891 4.775 10.667 10.666 10.667h597.332c5.893 0 10.67-4.776 10.67-10.667v-597.331c0-5.893-4.777-10.67-10.67-10.67h-597.332c-5.891 0-10.666 4.777-10.666 10.67v128c0 17.669-14.327 32-32 32s-32-14.331-32-32v-128c0-41.242 33.43-74.67 74.666-74.67h597.332c41.236 0 74.67 33.428 74.67 74.67v597.331c0 41.238-33.434 74.667-74.67 74.667h-597.332c-41.237 0-74.666-33.43-74.666-74.667v-128c0-17.673 14.327-32 32-32s32 14.327 32 32v128zM517.888 619.63c-12.316 12.677-32.575 12.97-45.252 0.656s-12.97-32.573-0.656-45.25l92.32-95.036h-389.367c-17.673 0-32-14.327-32-31.999 0-17.674 14.327-32 32-32h389.367l-92.32-95.037c-12.315-12.677-12.021-32.937 0.656-45.251s32.935-12.022 45.252 0.655l145.065 149.335c12.063 12.416 12.063 32.177 0 44.594l-145.065 149.334z" />
<glyph unicode="&#xe914;" glyph-name="kejar-hide-password" d="M73.107 477.577c16.333 6.75 35.046-1.015 41.798-17.348 62.070-150.157 215.881-257.562 397.096-257.562 181.21 0 335.023 107.405 397.090 257.562 6.754 16.333 25.468 24.098 41.801 17.348 16.333-6.754 24.098-25.468 17.348-41.801-25.331-61.278-63.65-116.156-111.654-161.574l106.479-125.495c11.435-13.478 9.779-33.668-3.695-45.103-13.478-11.435-33.668-9.779-45.103 3.695l-106.97 126.071c-40.333-29.184-85.495-52.518-134.114-68.723l19.827-138.786c2.5-17.493-9.655-33.702-27.153-36.203-17.493-2.5-33.702 9.655-36.203 27.153l-18.773 131.418c-31.953-6.268-65.024-9.562-98.88-9.562-33.86 0-66.931 3.294-98.883 9.562l-18.774-131.418c-2.499-17.498-18.708-29.653-36.204-27.153s-29.652 18.709-27.153 36.203l19.826 138.786c-48.616 16.205-93.78 39.539-134.113 68.723l-106.968-126.071c-11.434-13.474-31.628-15.13-45.103-3.695s-15.131 31.625-3.697 45.103l106.481 125.495c-48.007 45.419-86.323 100.297-111.654 161.574-6.752 16.333 1.015 35.046 17.348 41.801z" />
<glyph unicode="&#xe915;" glyph-name="kejar-link" d="M117.334 448.001c0 76.583 62.083 138.666 138.666 138.666h170.666c17.673 0 32 14.327 32 32s-14.327 32-32 32h-170.666c-111.93 0-202.666-90.737-202.666-202.666s90.737-202.665 202.666-202.665h170.666c17.673 0 32 14.326 32 32s-14.327 32-32 32h-170.666c-76.583 0-138.666 62.080-138.666 138.665zM565.335 618.667c0 17.673 14.326 32 32 32h170.665c111.928 0 202.665-90.737 202.665-202.666s-90.737-202.665-202.665-202.665h-170.665c-17.674 0-32 14.326-32 32s14.326 32 32 32h170.665c76.585 0 138.665 62.080 138.665 138.665 0 76.583-62.080 138.666-138.665 138.666h-170.665c-17.674 0-32 14.327-32 32zM352 448.001c0 17.673 14.327 32 32 32h256c17.674 0 32-14.327 32-32 0-17.675-14.326-32.001-32-32.001h-256c-17.673 0-32 14.326-32 32.001z" />
<glyph unicode="&#xe916;" glyph-name="kejar-italic" d="M448 661.334c0 17.673 14.327 32 32 32h213.333c17.673 0 32-14.327 32-32s-14.327-32-32-32h-83.964l-126.933-362.667h61.564c17.673 0 32-14.327 32-32s-14.327-32-32-32h-213.332c-17.673 0-32 14.327-32 32s14.327 32 32 32h83.963l126.933 362.667h-61.564c-17.673 0-32 14.327-32 32zM443.733 661.334c0-20.030 16.239-36.267 36.267-36.267h55.552l-123.948-354.134h-80.937c-20.029 0-36.267-16.239-36.267-36.267s16.237-36.267 36.267-36.267h213.332c20.032 0 36.267 16.239 36.267 36.267s-16.235 36.267-36.267 36.267h-55.548l123.947 354.134h80.934c20.032 0 36.267 16.237 36.267 36.267s-16.235 36.267-36.267 36.267h-213.333c-20.028 0-36.267-16.237-36.267-36.267zM480 629.334c-17.673 0-32 14.327-32 32s14.327 32 32 32h213.333c17.673 0 32-14.327 32-32s-14.327-32-32-32h-83.964l-126.933-362.667h61.564c17.673 0 32-14.327 32-32s-14.327-32-32-32h-213.332c-17.673 0-32 14.327-32 32s14.327 32 32 32h83.963l126.933 362.667h-61.564z" />
<glyph unicode="&#xe917;" glyph-name="kejar-latihan-to-bold" d="M362.668 874.667c-153.167 0-277.333-124.166-277.333-277.333v-298.669c0-153.165 124.166-277.33 277.333-277.33h298.668c153.165 0 277.335 124.165 277.335 277.33v298.669c0 153.167-124.17 277.333-277.335 277.333h-298.668zM298.668 618.667c0 23.564 19.103 42.667 42.667 42.667h341.336c23.562 0 42.665-19.103 42.665-42.667s-19.103-42.666-42.665-42.666h-341.336c-23.564 0-42.667 19.103-42.667 42.666zM298.668 448.001c0 23.564 19.103 42.666 42.667 42.666h341.336c23.562 0 42.665-19.102 42.665-42.666 0-23.563-19.103-42.665-42.665-42.665h-341.336c-23.564 0-42.667 19.103-42.667 42.665zM341.335 320c-23.564 0-42.667-19.103-42.667-42.665 0-23.567 19.103-42.67 42.667-42.67h170.665c23.567 0 42.67 19.103 42.67 42.67 0 23.562-19.103 42.665-42.67 42.665h-170.665z" />
<glyph unicode="&#xe918;" glyph-name="kejar-left" d="M630.625 137.426c-12.493-12.498-32.758-12.498-45.251 0l-277.336 277.33c-12.497 12.498-12.497 32.758 0 45.257l277.336 277.333c12.493 12.497 32.758 12.497 45.251 0 12.498-12.496 12.498-32.758 0-45.255l-254.704-254.705 254.704-254.71c12.498-12.493 12.498-32.758 0-45.251z" />
<glyph unicode="&#xe919;" glyph-name="kejar-log-out" d="M256 821.333c-64.801 0-117.333-52.532-117.333-117.333v-512c0-64.802 52.532-117.333 117.333-117.333h512c64.802 0 117.333 52.531 117.333 117.333v85.333c0 17.673-14.327 32-32 32s-32-14.327-32-32v-85.333c0-29.457-23.876-53.333-53.333-53.333h-512c-29.455 0-53.333 23.876-53.333 53.333v512c0 29.455 23.878 53.333 53.333 53.333h512c29.457 0 53.333-23.878 53.333-53.333v-85.333c0-17.673 14.327-32 32-32s32 14.327 32 32v85.333c0 64.801-52.531 117.333-117.333 117.333h-512zM709.559 619.961c-12.497 12.497-32.759 12.497-45.257 0-12.493-12.497-12.493-32.758 0-45.255l94.707-94.706h-392.078c-17.673 0-32-14.327-32-32s14.327-32 32-32h392.078l-94.707-94.707c-12.493-12.497-12.493-32.755 0-45.252 12.497-12.497 32.759-12.497 45.257 0l149.333 149.333c12.497 12.497 12.497 32.755 0 45.252l-149.333 149.335z" />
<glyph unicode="&#xe91a;" glyph-name="kejar-next" d="M490.667 477.083c15.36-16.094 15.36-42.114 0-58.477-1.899-2.028-4.032-3.901-6.4-5.591l-246.187-173.655c-28.586-19.625-67.413 0.425-67.413 34.985v347.308c0 34.56 38.826 54.614 67.413 34.986l246.187-174.080c2.368-1.649 4.501-3.487 6.4-5.476zM554.665 274.345v347.308c0 34.56 38.83 54.614 67.415 34.56l246.185-173.654c23.895-16.64 23.895-52.479 0-69.544l-246.185-173.655c-28.585-19.625-67.415 0.425-67.415 34.985zM618.665 580.301v-265.032l187.868 132.516-187.868 132.516zM234.667 315.269l187.895 132.536-187.895 132.864v-265.4z" />
<glyph unicode="&#xe91b;" glyph-name="kejar-number" d="M106.668 784c-8.836 0-16-7.163-16-16s7.164-16 16-16h26.667v-112c0-8.837 7.164-16 16-16s16 7.163 16 16v128c0 8.837-7.163 16-16 16h-42.667zM106.668 272c-8.836 0-16-7.164-16-16s7.164-16 16-16h64c2.946 0 5.333-2.389 5.333-5.333v-26.667h-26.667c-8.836 0-16-7.164-16-16s7.164-16 16-16h26.667v-26.667c0-2.944-2.388-5.333-5.333-5.333h-64c-8.836 0-16-7.164-16-16s7.164-16 16-16h64c20.619 0 37.333 16.717 37.333 37.333v85.333c0 20.617-16.715 37.333-37.333 37.333h-64zM90.668 512c0 8.836 7.164 16 16 16h64c20.619 0 37.333-16.717 37.333-37.333v-37.333c0-8.393-3.952-16.299-10.667-21.333l-42.667-32h37.333c8.837 0 16-7.164 16-16s-7.163-16-16-16h-85.333c-6.887 0-13.001 4.407-15.179 10.94s0.070 13.73 5.579 17.86l78.933 59.2v34.667c0 2.944-2.388 5.333-5.333 5.333h-64c-8.836 0-16 7.164-16 16zM341.334 736c-17.673 0-32-14.327-32-32s14.327-32 32-32h511.999c17.673 0 32 14.327 32 32s-14.327 32-32 32h-511.999zM341.334 480c-17.673 0-32-14.327-32-32s14.327-32 32-32h511.999c17.673 0 32 14.327 32 32s-14.327 32-32 32h-511.999zM341.334 224c-17.673 0-32-14.327-32-32s14.327-32 32-32h511.999c17.673 0 32 14.327 32 32s-14.327 32-32 32h-511.999z" />
<glyph unicode="&#xe91c;" glyph-name="kejar-open-book" d="M511.999 725.466c8.372 6.333 17.245 12.123 26.543 17.398 59.443 33.731 136.12 46.47 208.015 46.47h0.215c-71.834-0.026-148.419-12.772-207.805-46.47-9.375-5.32-18.324-11.163-26.757-17.56l-0.211 0.162zM277.225 789.333c71.836-0.026 148.418-12.772 207.804-46.47 9.376-5.32 18.323-11.163 26.756-17.56l0.214 0.162c-8.37 6.333-17.246 12.123-26.543 17.398-59.445 33.731-136.12 46.47-208.017 46.47h-0.214zM94.743 755.611c55.002 24.303 120.65 33.7 182.483 33.722h-0.214c-61.895 0-127.631-9.391-182.269-33.722zM148.527 112.333c-53.785-14.085-105.861 26.89-105.861 82.811 0-55.491 52.077-96.471 105.861-82.811zM277.439 127.698c66.59 0 137.449-11.095 194.649-39.27 2.53-1.285 5.098-2.442 7.698-3.471 10.325-4.081 21.145-6.129 32-6.134h0.424c10.86 0.005 21.678 2.053 32 6.134 2.601 1.029 5.171 2.186 7.7 3.471 57.201 28.175 128.056 39.27 194.647 39.27-66.591 0-137.446-10.67-194.647-39.27-2.673-1.336-5.386-2.534-8.125-3.594-10.332-3.988-21.074-5.99-31.786-6.011-10.712 0.020-21.455 2.022-31.786 6.011-2.74 1.060-5.451 2.258-8.125 3.594-57.2 28.6-128.058 39.27-194.649 39.27zM875.469 112.333c53.786-14.085 105.861 26.89 105.861 82.811 0-55.491-52.076-96.471-105.861-82.811zM929.254 755.611c-54.636 24.331-120.376 33.722-182.267 33.722h-0.215c61.834-0.022 127.483-9.419 182.482-33.722zM538.967 742.863c-9.375-5.32-18.324-11.163-26.757-17.56l-0.211 0.162-0.214-0.162c-8.433 6.397-17.38 12.239-26.756 17.56-59.386 33.697-135.968 46.444-207.804 46.47-61.833-0.022-127.481-9.419-182.483-33.722-31.161-14.086-52.077-44.393-52.077-78.969v-481.498c0-55.491 52.077-96.471 105.861-82.811 41.832 10.67 86.226 15.365 128.912 15.365 66.59 0 137.449-10.67 194.649-39.27 2.674-1.336 5.385-2.534 8.125-3.594 10.331-3.988 21.074-5.99 31.786-6.011 10.712 0.020 21.454 2.022 31.786 6.011 2.739 1.060 5.453 2.258 8.125 3.594 57.201 28.6 128.056 39.27 194.647 39.27 42.685 0 87.081-4.695 128.911-15.365 53.786-13.66 105.861 27.32 105.861 82.811v481.498c0 34.575-20.915 64.883-52.076 78.969-54.999 24.303-120.648 33.7-182.482 33.722-71.834-0.026-148.419-12.772-207.805-46.47zM544.21 669.875c2.299 1.327 4.531 2.807 6.682 4.441 45.742 34.701 118.825 51.018 196.096 51.018 56.381 0 112.333-8.688 156.032-28.098 9.641-4.413 14.31-12.781 14.31-20.593v-481.498c0-15.032-13.43-24.1-25.646-20.9l-0.394 0.102c-47.775 12.186-97.572 17.352-144.732 17.352-64.978 0-137.841-9.221-202.348-36.408v514.585zM479.785 669.875v-514.585c-64.506 27.187-137.369 36.408-202.346 36.408-47.161 0-96.957-5.166-144.732-17.352l-0.395-0.102c-12.217-3.2-25.647 5.868-25.647 20.9v481.498c0 7.813 4.672 16.18 14.312 20.593 43.7 19.41 99.652 28.098 156.034 28.098 77.267 0 150.35-16.316 196.093-51.018 2.154-1.634 4.386-3.114 6.681-4.441z" />
<glyph unicode="&#xe91d;" glyph-name="kejar-password" d="M618.667 320c0 71.113-67.392 106.667-106.667 106.667s-106.667-35.554-106.667-106.667c0-71.113 67.392-106.667 106.667-106.667s106.667 35.554 106.667 106.667zM554.667 320c0-13.026-5.444-22.549-15.1-30.438-5.129-4.19-11.063-7.484-16.823-9.643-6.029-2.266-9.954-2.586-10.743-2.586s-4.715 0.32-10.743 2.586c-5.76 2.159-11.695 5.453-16.823 9.643-9.655 7.889-15.1 17.412-15.1 30.438s5.444 22.549 15.1 30.438c5.129 4.19 11.063 7.484 16.823 9.643 6.029 2.266 9.954 2.586 10.743 2.586s4.715-0.32 10.743-2.586c5.76-2.159 11.695-5.453 16.823-9.643 9.655-7.889 15.1-17.412 15.1-30.438zM714.667 704c0 111.93-90.735 202.667-202.667 202.667-111.93 0-202.667-90.737-202.667-202.667v-96h-10.667c-64.801 0-117.333-52.532-117.333-117.333v-341.333c0-64.802 52.532-117.333 117.333-117.333h426.667c64.802 0 117.333 52.531 117.333 117.333v341.333c0 64.801-52.531 117.333-117.333 117.333h-10.667v96zM373.333 704c0 76.584 62.084 138.667 138.667 138.667s138.667-62.083 138.667-138.667v-96h-277.333v96zM298.667 544h426.667c29.457 0 53.333-23.876 53.333-53.333v-341.333c0-29.457-23.876-53.333-53.333-53.333h-426.667c-29.455 0-53.333 23.876-53.333 53.333v341.333c0 29.457 23.878 53.333 53.333 53.333z" />
<glyph unicode="&#xe91e;" glyph-name="kejar-play" d="M405.333 265.929l286.434 182.276-286.434 181.925v-364.201zM754.347 484.275c26.453-17.067 26.453-55.467 0-72.107l-347.307-221.013c-28.587-18.347-65.707 2.133-65.707 35.84v442.028c0 33.707 37.12 54.187 65.707 35.84l347.307-220.588z" />
<glyph unicode="&#xe91f;" glyph-name="kejar-profile" d="M512 448c-94.257 0-170.667 76.412-170.667 170.667 0 94.257 76.41 170.667 170.667 170.667 94.255 0 170.667-76.41 170.667-170.667 0-94.255-76.412-170.667-170.667-170.667zM512 512c58.91 0 106.667 47.756 106.667 106.667s-47.757 106.667-106.667 106.667c-58.91 0-106.667-47.756-106.667-106.667s47.757-106.667 106.667-106.667zM181.333 170.667c0 46.729 12.257 105.071 64.148 150.912 50.972 45.026 134.775 73.088 266.519 73.088 131.742 0 215.548-28.062 266.517-73.088 51.891-45.841 64.149-104.183 64.149-150.912v-21.333c0-17.673-14.327-32-32-32h-597.333c-17.673 0-32 14.327-32 32v21.333zM778.385 181.333c-1.754 32.457-12.105 65.66-42.236 92.279-34.364 30.353-99.891 57.054-224.149 57.054-124.256 0-189.786-26.701-224.148-57.054-30.131-26.62-40.483-59.823-42.237-92.279h532.77z" />
<glyph unicode="&#xe920;" glyph-name="kejar-right" d="M404.039 747.96c12.496 12.497 32.758 12.497 45.255 0l277.331-277.334c12.498-12.497 12.498-32.759 0-45.257l-277.331-277.33c-12.497-12.498-32.758-12.498-45.255 0s-12.497 32.758 0 45.256l254.705 254.705-254.705 254.705c-12.497 12.497-12.497 32.758 0 45.255z" />
<glyph unicode="&#xe921;" glyph-name="kejar-round" d="M513.556 586.666h-225.555v-277.331h232.15c20.198 0 38.666-11.418 47.703-29.486l27.924-55.849h172.221c5.893 0 10.67 4.777 10.67 10.665v256.002c0 5.891-4.777 10.667-10.67 10.667h-178.816c-20.198 0-38.666 11.414-47.703 29.482l-27.924 55.851zM513.556 245.335h-225.555v-138.67c0-17.669-14.327-32-32-32s-32 14.331-32 32v615.187c-25.226 11.984-42.666 37.696-42.666 67.482 0 41.237 33.43 74.666 74.666 74.666s74.666-33.43 74.666-74.666c0-29.786-17.44-55.498-42.666-67.482v-71.185h232.15c20.198 0 38.666-11.414 47.703-29.482l27.924-55.851h172.221c41.236 0 74.67-33.43 74.67-74.667v-256.002c0-41.236-33.434-74.665-74.67-74.665h-178.816c-20.198 0-38.666 11.412-47.703 29.481l-27.924 55.854z" />
<glyph unicode="&#xe922;" glyph-name="kejar-show-password" d="M112.253 448c69.989-151.249 222.699-256 399.747-256 177.050 0 329.758 104.751 399.748 256-69.99 151.248-222.699 256-399.748 256s-329.759-104.751-399.747-256zM981.333 448c-73.813-187.307-256-320-469.333-320s-395.52 132.693-469.333 320c73.813 187.307 256 320 469.333 320s395.52-132.693 469.333-320zM512 586.667c-76.582 0-138.667-62.084-138.667-138.667s62.084-138.667 138.667-138.667c76.582 0 138.667 62.084 138.667 138.667s-62.084 138.667-138.667 138.667zM309.333 448c0 111.93 90.737 202.667 202.667 202.667 111.932 0 202.667-90.737 202.667-202.667 0-111.932-90.735-202.667-202.667-202.667-111.93 0-202.667 90.735-202.667 202.667z" />
<glyph unicode="&#xe923;" glyph-name="kejar-show" d="M811.96 555.96c12.498-12.497 12.498-32.758 0-45.255l-277.335-277.336c-12.493-12.493-32.756-12.493-45.253 0l-277.334 277.336c-12.497 12.497-12.497 32.758 0 45.255s32.758 12.497 45.255 0l254.706-254.705 254.705 254.705c12.498 12.497 32.758 12.497 45.256 0z" />
<glyph unicode="&#xe924;" glyph-name="kejar-soal-benar" d="M383.999 270.080l-148.053 148.055c-16.64 16.64-43.52 16.64-60.16 0s-16.64-43.52 0-60.16l178.346-178.35c16.64-16.64 43.52-16.64 60.16 0l451.412 451.415c16.64 16.64 16.64 43.52 0 60.16s-43.52 16.64-60.16 0l-421.545-421.119z" />
<glyph unicode="&#xe925;" glyph-name="kejar-stage" d="M234.666 614.459v136.415l102.311-68.207-102.311-68.208zM170.666 594.529c0-42.597 47.475-68.005 82.917-44.376l132.208 88.138c31.666 21.11 31.666 67.641 0 88.752l-132.208 88.138c-35.443 23.628-82.917-1.779-82.917-44.376v-176.276zM672 394.665c88.366 0 160 71.636 160 160.002s-71.634 160-160 160h-72.561c-11.069 19.129-31.749 32-55.439 32-35.347 0-64.001-28.654-64.001-64s28.654-64 64.001-64c23.69 0 44.37 12.87 55.439 32h72.561c53.018 0 96-42.981 96-96s-42.982-96-96-96h-362.667c-88.366 0-160-71.636-160-160.002s71.634-160 160-160h392.563c11.064-19.128 31.749-32 55.439-32 35.343 0 64 28.657 64 64 0 35.348-28.657 64-64 64-23.69 0-44.375-12.867-55.439-32h-392.563c-53.020 0-96 42.982-96 96 0 53.023 42.98 96 96 96h362.667z" />
<glyph unicode="&#xe926;" glyph-name="kejar-sudah-dikerjakan-small" d="M512 704.052c-141.312 0-256-114.688-256-256s114.688-256.001 256-256.001c141.312 0 256 114.688 256 256.001s-114.688 256-256 256zM442.624 338.227l-91.904 91.904c-9.984 9.984-9.984 26.113 0 36.097s26.112 9.984 36.096 0l73.984-73.729 176.128 176.129c9.984 9.984 26.112 9.984 36.096 0s9.984-26.112 0-36.096l-194.304-194.305c-9.728-9.984-26.112-9.984-36.096 0z" />
<glyph unicode="&#xe927;" glyph-name="kejar-sudah-dikerjakan" d="M512 874.667c-235.519 0-426.665-191.146-426.665-426.666s191.146-426.665 426.665-426.665c235.52 0 426.67 191.145 426.67 426.665s-191.15 426.666-426.67 426.666zM396.375 264.96l-153.174 153.175c-16.64 16.64-16.64 43.519 0 60.159s43.52 16.64 60.16 0l123.306-122.879 293.548 293.545c16.64 16.64 43.52 16.64 60.16 0s16.64-43.52 0-60.16l-323.841-323.841c-16.214-16.64-43.52-16.64-60.16 0z" />
<glyph unicode="&#xe928;" glyph-name="kejar-top" d="M489.374 752.227c12.497 12.497 32.755 12.497 45.252 0l277.333-277.334c12.497-12.497 12.497-32.759 0-45.257-12.497-12.493-32.755-12.493-45.252 0l-222.707 222.708v-498.744c0-17.673-14.327-32-32-32s-32 14.327-32 32v498.744l-222.706-222.708c-12.497-12.493-32.758-12.493-45.255 0-12.497 12.497-12.497 32.759 0 45.257l277.335 277.334z" />
<glyph unicode="&#xe929;" glyph-name="kejar-underlined" d="M320 746.667c17.673 0 32-14.327 32-32v-266.79c0-20.693 1.049-37.918 5.841-53.299 6.808-21.858 19.852-51.439 43.585-75.221 22.916-22.963 57.193-42.022 110.574-42.022s87.659 19.059 110.575 42.022c23.731 23.782 36.774 53.363 43.584 75.221 4.791 15.381 5.841 32.606 5.841 53.299v266.79c0 17.673 14.327 32 32 32s32-14.327 32-32v-266.79c0-21.769-0.9-47.177-8.738-72.333-8.512-27.332-25.673-67.614-59.388-101.397-34.534-34.603-84.954-60.813-155.874-60.813s-121.342 26.21-155.875 60.813c-33.716 33.783-50.875 74.065-59.389 101.397-7.836 25.156-8.737 50.564-8.737 72.333v266.79c0 17.673 14.327 32 32 32zM288 117.333c0 17.673 14.327 32 32 32h384c17.673 0 32-14.327 32-32s-14.327-32-32-32h-384c-17.673 0-32 14.327-32 32z" />
<glyph unicode="&#xe92a;" glyph-name="kejar-upload" d="M480.001 722.745v-402.745c0-17.674 14.327-32 31.999-32 17.674 0 32 14.326 32 32v402.745l105.375-105.373c12.493-12.497 32.758-12.497 45.256 0 12.493 12.497 12.493 32.758 0 45.255l-160 160c-12.498 12.497-32.76 12.497-45.257 0l-160-160c-12.497-12.497-12.497-32.758 0-45.255s32.758-12.497 45.255 0l105.373 105.373zM192.006 416c0 17.674-14.327 32-32 32s-32-14.326-32-32v-256c0-53.018 42.981-96 96-96h575.994c53.018 0 96 42.982 96 96v256c0 17.674-14.326 32-32 32s-32-14.326-32-32v-256c0-17.674-14.326-32-32-32h-575.994c-17.673 0-32 14.326-32 32v256z" />
<glyph unicode="&#xe92b;" glyph-name="kejar-info" d="M512 85.333c-200.295 0-362.667 162.372-362.667 362.667s162.371 362.667 362.667 362.667c200.294 0 362.667-162.371 362.667-362.667s-162.372-362.667-362.667-362.667zM512 21.333c235.639 0 426.667 191.027 426.667 426.667 0 235.642-191.027 426.667-426.667 426.667-235.642 0-426.667-191.025-426.667-426.667 0-235.639 191.025-426.667 426.667-426.667zM512 522.667c17.673 0 32-14.327 32-32v-256c0-17.673-14.327-32-32-32s-32 14.327-32 32v256c0 17.673 14.327 32 32 32zM554.667 618.667c0-23.564-19.102-42.667-42.667-42.667s-42.667 19.103-42.667 42.667c0 23.564 19.102 42.667 42.667 42.667s42.667-19.103 42.667-42.667z" />
<glyph unicode="&#xe92c;" glyph-name="kejar-mapel" d="M256 874.667h512c47.13 0 85.333-38.205 85.333-85.333v-682.667c0-47.13-38.204-85.333-85.333-85.333h-512c-47.128 0-85.333 38.204-85.333 85.333v682.667c0 47.128 38.205 85.333 85.333 85.333zM298.667 810.667h-42.667c-11.782 0-21.333-9.551-21.333-21.333v-682.667c0-11.78 9.551-21.333 21.333-21.333h512c11.78 0 21.333 9.553 21.333 21.333v682.667c0 11.782-9.553 21.333-21.333 21.333h-192v-309.333c0-11.089-5.743-21.389-15.177-27.221-9.434-5.828-21.214-6.362-31.134-1.399l-92.356 46.178-92.356-46.178c-9.92-4.962-21.7-4.429-31.134 1.399-9.434 5.833-15.177 16.132-15.177 27.221v309.333zM512 810.667h-149.333v-257.556l60.356 30.178c9.007 4.504 19.614 4.504 28.621 0l60.356-30.178v257.556z" />
<glyph unicode="&#xe92d;" glyph-name="search" d="M704 512.051c0 141.386-114.615 256.001-256 256.001s-256-114.615-256-256.001c0-141.385 114.615-256 256-256s256 114.615 256 256zM650.517 264.277c-55.164-45.141-125.675-72.226-202.517-72.226-176.731 0-320 143.27-320 320 0 176.732 143.269 320.001 320 320.001s320-143.269 320-320.001c0-76.838-27.085-147.354-72.226-202.517l177.6-177.6c12.497-12.497 12.497-32.759 0-45.252-12.497-12.497-32.759-12.497-45.257 0l-177.6 177.596z" />
<glyph unicode="&#xe92e;" glyph-name="kejar-drag-vertical" d="M384 618.719c47.13 0 85.333 38.205 85.333 85.333s-38.204 85.333-85.333 85.333c-47.128 0-85.333-38.205-85.333-85.333s38.205-85.333 85.333-85.333zM384 682.719c11.782 0 21.333 9.551 21.333 21.333s-9.551 21.333-21.333 21.333c-11.782 0-21.333-9.551-21.333-21.333s9.551-21.333 21.333-21.333zM640 618.719c47.13 0 85.333 38.205 85.333 85.333s-38.204 85.333-85.333 85.333c-47.13 0-85.333-38.205-85.333-85.333s38.204-85.333 85.333-85.333zM640 682.719c11.78 0 21.333 9.551 21.333 21.333s-9.553 21.333-21.333 21.333c-11.78 0-21.333-9.551-21.333-21.333s9.553-21.333 21.333-21.333zM384 362.718c47.13 0 85.333 38.208 85.333 85.333 0 47.13-38.204 85.334-85.333 85.334s-85.333-38.205-85.333-85.334c0-47.125 38.205-85.333 85.333-85.333zM384 426.718c11.782 0 21.333 9.553 21.333 21.333 0 11.785-9.551 21.333-21.333 21.333s-21.333-9.549-21.333-21.333c0-11.78 9.551-21.333 21.333-21.333zM640 362.718c47.13 0 85.333 38.208 85.333 85.333 0 47.13-38.204 85.334-85.333 85.334s-85.333-38.205-85.333-85.334c0-47.125 38.204-85.333 85.333-85.333zM640 426.718c11.78 0 21.333 9.553 21.333 21.333 0 11.785-9.553 21.333-21.333 21.333s-21.333-9.549-21.333-21.333c0-11.78 9.553-21.333 21.333-21.333zM384 106.718c47.13 0 85.333 38.208 85.333 85.333 0 47.13-38.204 85.333-85.333 85.333s-85.333-38.204-85.333-85.333c0-47.125 38.205-85.333 85.333-85.333zM384 170.718c11.782 0 21.333 9.553 21.333 21.333 0 11.785-9.551 21.333-21.333 21.333s-21.333-9.549-21.333-21.333c0-11.78 9.551-21.333 21.333-21.333zM640 106.718c47.13 0 85.333 38.208 85.333 85.333 0 47.13-38.204 85.333-85.333 85.333s-85.333-38.204-85.333-85.333c0-47.125 38.204-85.333 85.333-85.333zM640 170.718c11.78 0 21.333 9.553 21.333 21.333 0 11.785-9.553 21.333-21.333 21.333s-21.333-9.549-21.333-21.333c0-11.78 9.553-21.333 21.333-21.333z" />
<glyph unicode="&#xe92f;" glyph-name="kejar-photo" d="M394.667 629.333c-23.564 0-42.667-19.103-42.667-42.667s19.103-42.667 42.667-42.667c23.564 0 42.667 19.103 42.667 42.667s-19.103 42.667-42.667 42.667zM288 586.667c0 58.91 47.756 106.667 106.667 106.667s106.667-47.756 106.667-106.667c0-58.91-47.757-106.667-106.667-106.667s-106.667 47.757-106.667 106.667zM853.333 182.519v530.962c0 41.719-34.133 75.852-75.853 75.852h-530.962c-41.719 0-75.852-34.133-75.852-75.852v-530.962c0-41.719 34.133-75.853 75.852-75.853h530.962c41.719 0 75.853 34.133 75.853 75.853zM682.786 488.41c-22.234 27.793-64.93 26.423-85.338-2.731l-108.996-155.703-63.143 75.772c-21.6 25.92-61.54 25.523-82.618-0.823l-108.024-135.031v443.589c0 6.372 5.48 11.852 11.852 11.852h530.962c6.374 0 11.853-5.48 11.853-11.852v-358.256l-106.547 133.184zM394.667 693.333c-58.91 0-106.667-47.756-106.667-106.667s47.756-106.667 106.667-106.667c58.91 0 106.667 47.757 106.667 106.667s-47.757 106.667-106.667 106.667zM785.677 257.344c1.131-1.412 2.355-2.701 3.657-3.87v-70.955c0-6.374-5.478-11.853-11.853-11.853h-530.962c-2.678 0-5.199 0.969-7.221 2.564l145.209 181.508 63.716-76.454c22.498-26.999 64.508-25.237 84.663 3.558l108.821 155.465 143.97-179.964zM394.667 629.333c23.564 0 42.667-19.103 42.667-42.667s-19.103-42.667-42.667-42.667c-23.564 0-42.667 19.103-42.667 42.667s19.103 42.667 42.667 42.667z" />
<glyph unicode="&#xe930;" glyph-name="kejar-radio-button" d="M682.667 448c0-94.255-76.412-170.667-170.667-170.667-94.257 0-170.667 76.412-170.667 170.667 0 94.257 76.41 170.667 170.667 170.667 94.255 0 170.667-76.41 170.667-170.667zM512 85.333c-200.295 0-362.667 162.372-362.667 362.667s162.371 362.667 362.667 362.667c200.294 0 362.667-162.371 362.667-362.667s-162.372-362.667-362.667-362.667zM512 21.333c235.639 0 426.667 191.027 426.667 426.667 0 235.642-191.027 426.667-426.667 426.667-235.642 0-426.667-191.025-426.667-426.667 0-235.639 191.025-426.667 426.667-426.667z" />
<glyph unicode="&#xe931;" glyph-name="belum-dikerjakan" d="M512 85.333c-200.295 0-362.667 162.372-362.667 362.667s162.371 362.667 362.667 362.667c200.294 0 362.667-162.371 362.667-362.667s-162.372-362.667-362.667-362.667zM512 21.333c235.639 0 426.667 191.027 426.667 426.667 0 235.642-191.027 426.667-426.667 426.667-235.642 0-426.667-191.025-426.667-426.667 0-235.639 191.025-426.667 426.667-426.667z" />
<glyph unicode="&#xe932;" glyph-name="kejar-check-box" d="M768 810.667c58.91 0 106.667-47.756 106.667-106.667v-512c0-58.91-47.757-106.667-106.667-106.667h-512c-58.91 0-106.667 47.757-106.667 106.667v512c0 58.91 47.756 106.667 106.667 106.667h512zM256 874.667c-94.257 0-170.667-76.41-170.667-170.667v-512c0-94.255 76.41-170.667 170.667-170.667h512c94.255 0 170.667 76.412 170.667 170.667v512c0 94.257-76.412 170.667-170.667 170.667h-512z" />
<glyph unicode="&#xe933;" glyph-name="kejar-checked-box" d="M256 874.667h512c94.255 0 170.667-76.41 170.667-170.667v-512c0-94.255-76.412-170.667-170.667-170.667h-512c-94.257 0-170.667 76.412-170.667 170.667v512c0 94.257 76.41 170.667 170.667 170.667zM243.199 418.133l153.173-153.173c16.64-16.64 43.948-16.64 60.161 0l323.84 323.84c16.64 16.64 16.64 43.52 0 60.16s-43.52 16.64-60.16 0l-293.548-293.547-123.307 122.88c-16.64 16.64-43.52 16.64-60.16 0s-16.64-43.52 0-60.16z" />
<glyph unicode="&#xe934;" glyph-name="kejar-a-bold-ellipse" d="M576.704 395.187l-64.461 177.232-64.457-177.232h128.917zM512-21.333c259.204 0 469.333 210.129 469.333 469.333 0 259.206-210.129 469.333-469.333 469.333-259.206 0-469.333-210.128-469.333-469.333 0-259.204 210.128-469.333 469.333-469.333zM682.667 267.486c0 5.171-0.977 10.347-2.931 15.518l-135.262 353.863c-2.931 7.956-7.488 13.924-13.675 17.902-5.858 4.376-12.207 6.564-19.042 6.564-6.839 0-13.35-2.188-19.533-6.564-5.862-3.978-10.257-9.946-13.184-17.902l-134.777-353.863c-1.953-5.171-2.93-10.347-2.93-15.518 0-9.148 3.092-16.905 9.278-23.27s13.022-9.549 20.509-9.549c5.534 0 10.58 1.591 15.138 4.774 4.558 3.58 8.139 8.951 10.743 16.111l29.299 79.962h171.886l29.299-79.962c2.607-7.159 6.187-12.531 10.743-16.111 4.557-3.183 9.442-4.774 14.652-4.774 7.812 0 14.647 3.183 20.506 9.549 6.187 6.366 9.28 14.123 9.28 23.27z" />
<glyph unicode="&#xe935;" glyph-name="kejar-a-ellipse" d="M679.735 283.004l-135.262 353.863c-2.931 7.956-7.488 13.924-13.675 17.902-5.858 4.376-12.207 6.564-19.042 6.564-6.839 0-13.35-2.188-19.533-6.564-5.862-3.978-10.257-9.946-13.184-17.902l-134.777-353.863c-1.953-5.171-2.93-10.347-2.93-15.518 0-9.148 3.092-16.905 9.278-23.27s13.022-9.549 20.509-9.549c5.534 0 10.58 1.591 15.138 4.774 4.558 3.58 8.139 8.951 10.743 16.111l29.299 79.962h171.886l29.299-79.962c2.607-7.159 6.187-12.531 10.743-16.111 4.557-3.183 9.442-4.774 14.652-4.774 7.812 0 14.647 3.183 20.506 9.549 6.187 6.366 9.28 14.123 9.28 23.27 0 5.171-0.977 10.347-2.931 15.518zM512.243 572.419l64.461-177.232h-128.917l64.457 177.232zM512 85.333c-200.295 0-362.667 162.372-362.667 362.667s162.371 362.667 362.667 362.667c200.294 0 362.667-162.371 362.667-362.667s-162.372-362.667-362.667-362.667zM512 21.333c235.639 0 426.667 191.027 426.667 426.667 0 235.642-191.027 426.667-426.667 426.667-235.642 0-426.667-191.025-426.667-426.667 0-235.639 191.025-426.667 426.667-426.667z" />
<glyph unicode="&#xe936;" glyph-name="kejar-b-bold-ellipse" d="M417.86 481.587h99c53.85 0 80.777 19.972 80.777 59.916 0 20.173-6.682 35.101-20.041 44.785-13.363 9.683-33.609 14.525-60.736 14.525h-99v-119.226zM527.185 295.185c28.343 0 48.994 5.043 61.948 15.13 12.958 10.091 19.435 25.826 19.435 47.206 0 21.385-6.677 37.321-20.041 47.812-12.958 10.492-33.404 15.735-61.342 15.735h-109.325v-125.884h109.325zM512-21.333c-259.206 0-469.333 210.129-469.333 469.333 0 259.206 210.128 469.333 469.333 469.333 259.204 0 469.333-210.128 469.333-469.333 0-259.204-210.129-469.333-469.333-469.333zM662.016 417.438c-13.363 18.155-32.393 30.665-57.092 37.521 21.056 7.667 37.457 19.772 49.199 36.314 12.147 16.542 18.219 36.109 18.219 58.704 0 35.102-12.753 62.336-38.263 81.702-25.105 19.77-59.925 29.655-104.465 29.655h-150.624c-11.742 0-21.055-3.228-27.938-9.683-6.479-6.455-9.718-15.534-9.718-27.234v-352.834c0-11.699 3.239-20.774 9.718-27.234 6.883-6.455 16.196-9.681 27.938-9.681h156.699c45.751 0 81.587 10.287 107.499 30.865 26.321 20.578 39.479 49.020 39.479 85.333 0 26.227-6.882 48.418-20.651 66.573z" />
<glyph unicode="&#xe937;" glyph-name="kejar-b-ellipse" d="M604.924 455.053c21.056 7.667 37.457 19.772 49.199 36.314 12.147 16.542 18.219 36.109 18.219 58.704 0 35.101-12.753 62.336-38.263 81.702-25.105 19.77-59.925 29.655-104.465 29.655h-150.624c-11.742 0-21.055-3.228-27.938-9.683-6.479-6.455-9.718-15.534-9.718-27.234v-352.834c0-11.699 3.239-20.779 9.718-27.234 6.883-6.455 16.196-9.681 27.938-9.681h156.699c45.751 0 81.587 10.287 107.499 30.865 26.321 20.578 39.479 49.020 39.479 85.333 0 26.227-6.882 48.418-20.651 66.573-13.363 18.155-32.393 30.665-57.092 37.521zM516.86 481.681h-99v119.226h99c27.127 0 47.373-4.842 60.736-14.525 13.359-9.683 20.041-24.611 20.041-44.785 0-39.944-26.927-59.916-80.777-59.916zM589.133 310.409c-12.954-10.086-33.604-15.13-61.948-15.13h-109.325v125.884h109.325c27.938 0 48.384-5.244 61.342-15.735 13.363-10.492 20.041-26.428 20.041-47.812s-6.477-37.116-19.435-47.206zM512 85.333c-200.295 0-362.667 162.372-362.667 362.667s162.371 362.667 362.667 362.667c200.294 0 362.667-162.371 362.667-362.667s-162.372-362.667-362.667-362.667zM512 21.333c235.639 0 426.667 191.027 426.667 426.667 0 235.642-191.027 426.667-426.667 426.667-235.642 0-426.667-191.025-426.667-426.667 0-235.639 191.025-426.667 426.667-426.667z" />
<glyph unicode="&#xe938;" glyph-name="kejar-c-bold-ellipse" d="M512-21.333c259.204 0 469.333 210.129 469.333 469.333 0 259.206-210.129 469.333-469.333 469.333-259.206 0-469.333-210.128-469.333-469.333 0-259.204 210.128-469.333 469.333-469.333zM537.293 234.667c-39.539 0-74.236 8.657-104.085 25.967-29.461 17.31-52.139 42.095-68.033 74.355s-23.841 70.029-23.841 113.306c0 43.277 7.947 80.849 23.841 112.716 15.894 32.26 38.572 57.046 68.033 74.356 29.85 17.311 64.546 25.966 104.085 25.966 25.587 0 49.621-3.934 72.107-11.803 22.485-7.475 42.449-18.491 59.891-33.047 5.043-3.934 8.529-8.065 10.47-12.393 1.937-4.328 2.906-9.639 2.906-15.934 0-8.655-2.325-15.933-6.976-21.835-4.655-5.901-10.274-8.852-16.866-8.852-7.753 0-15.697 2.754-23.838 8.262-16.67 12.589-32.179 21.245-46.519 25.966-14.345 5.114-30.238 7.672-47.684 7.672-40.316 0-70.942-12.786-91.874-38.359-20.544-25.573-30.819-63.146-30.819-112.716 0-49.963 10.275-87.731 30.819-113.306 20.932-25.57 51.558-38.357 91.874-38.357 16.67 0 31.983 2.556 45.939 7.671 14.345 5.116 30.43 13.769 48.265 25.967 3.874 2.359 7.753 4.326 11.627 5.901 3.878 1.574 7.949 2.359 12.211 2.359 6.592 0 12.211-2.953 16.866-8.853 4.651-5.901 6.976-13.18 6.976-21.833 0-5.901-0.969-11.213-2.906-15.936-1.941-4.326-5.427-8.457-10.47-12.39-17.442-14.558-37.406-25.771-59.891-33.638-22.485-7.475-46.519-11.213-72.107-11.213z" />
<glyph unicode="&#xe939;" glyph-name="kejar-c-ellipse" d="M433.207 260.727c29.85-17.31 64.546-25.967 104.085-25.967 25.587 0 49.621 3.738 72.107 11.213 22.485 7.868 42.449 19.081 59.891 33.638 5.043 3.934 8.529 8.064 10.47 12.39 1.937 4.723 2.906 10.035 2.906 15.936 0 8.653-2.325 15.932-6.976 21.833-4.655 5.901-10.274 8.853-16.866 8.853-4.262 0-8.333-0.785-12.211-2.359-3.874-1.574-7.753-3.541-11.627-5.901-17.835-12.198-33.92-20.851-48.265-25.967-13.956-5.116-29.269-7.671-45.939-7.671-40.316 0-70.942 12.787-91.874 38.357-20.544 25.574-30.819 63.343-30.819 113.306 0 49.57 10.275 87.144 30.819 112.716 20.932 25.573 51.558 38.359 91.874 38.359 17.446 0 33.34-2.557 47.684-7.671 14.34-4.721 29.85-13.376 46.519-25.966 8.141-5.508 16.085-8.262 23.838-8.262 6.592 0 12.211 2.95 16.866 8.852 4.651 5.902 6.976 13.18 6.976 21.835 0 6.295-0.969 11.606-2.906 15.934-1.941 4.327-5.427 8.458-10.47 12.393-17.442 14.557-37.406 25.573-59.891 33.047-22.485 7.869-46.519 11.803-72.107 11.803-39.539 0-74.236-8.655-104.085-25.966-29.461-17.311-52.139-42.096-68.033-74.357-15.894-31.867-23.841-69.439-23.841-112.716s7.947-81.045 23.841-113.306c15.894-32.26 38.572-57.045 68.033-74.355zM512 85.333c-200.295 0-362.667 162.372-362.667 362.667s162.371 362.667 362.667 362.667c200.294 0 362.667-162.371 362.667-362.667s-162.372-362.667-362.667-362.667zM512 21.333c235.639 0 426.667 191.027 426.667 426.667 0 235.642-191.027 426.667-426.667 426.667-235.642 0-426.667-191.025-426.667-426.667 0-235.639 191.025-426.667 426.667-426.667z" />
<glyph unicode="&#xe93a;" glyph-name="kejar-d-bold-ellipse" d="M479.181 298.214c88.614 0 132.924 50.027 132.924 150.089 0 99.656-44.309 149.484-132.924 149.484h-67.283v-299.573h67.283zM512-21.333c-259.206 0-469.333 210.129-469.333 469.333 0 259.206 210.128 469.333 469.333 469.333 259.204 0 469.333-210.128 469.333-469.333 0-259.204-210.129-469.333-469.333-469.333zM350.086 244.348c6.199-6.455 14.587-9.681 25.162-9.681h108.306c63.091 0 111.957 18.56 146.598 55.68 35.008 37.521 52.514 90.172 52.514 157.956 0 67.379-17.506 119.628-52.514 156.747-34.641 37.522-83.507 56.284-146.598 56.284h-108.306c-10.575 0-18.963-3.228-25.162-9.683-5.835-6.455-8.752-15.534-8.752-27.234v-352.834c0-11.699 2.918-20.774 8.752-27.234z" />
<glyph unicode="&#xe93b;" glyph-name="kejar-d-ellipse" d="M375.248 234.667h108.306c63.091 0 111.957 18.56 146.598 55.68 35.008 37.521 52.514 90.172 52.514 157.956 0 67.379-17.506 119.628-52.514 156.747-34.641 37.522-83.507 56.284-146.598 56.284h-108.306c-10.575 0-18.963-3.228-25.162-9.683-5.835-6.455-8.752-15.534-8.752-27.234v-352.834c0-11.699 2.918-20.774 8.752-27.234 6.199-6.455 14.587-9.681 25.162-9.681zM612.105 448.303c0-100.062-44.309-150.089-132.924-150.089h-67.283v299.573h67.283c88.614 0 132.924-49.828 132.924-149.484zM512 85.333c-200.295 0-362.667 162.372-362.667 362.667s162.371 362.667 362.667 362.667c200.294 0 362.667-162.371 362.667-362.667s-162.372-362.667-362.667-362.667zM512 21.333c235.639 0 426.667 191.027 426.667 426.667 0 235.642-191.027 426.667-426.667 426.667-235.642 0-426.667-191.025-426.667-426.667 0-235.639 191.025-426.667 426.667-426.667z" />
<glyph unicode="&#xe93c;" glyph-name="kejar-e-bold-ellipse" d="M512-21.333c259.204 0 469.333 210.129 469.333 469.333 0 259.206-210.129 469.333-469.333 469.333-259.206 0-469.333-210.128-469.333-469.333 0-259.204 210.128-469.333 469.333-469.333zM385.058 234.667c-13.635 0-24.448 3.226-32.441 9.681-7.523 6.46-11.284 15.535-11.284 27.234v352.834c0 11.7 3.761 20.779 11.284 27.234 7.993 6.455 18.806 9.683 32.441 9.683h254.588c13.636 0 24.213-2.623 31.735-7.868s11.285-12.709 11.285-22.392c0-10.087-3.763-17.954-11.285-23.603-7.522-5.245-18.099-7.868-31.735-7.868h-209.455v-117.41h195.354c13.632 0 24.213-2.62 31.735-7.868 7.522-5.244 11.281-12.911 11.281-22.997 0-9.681-3.759-17.148-11.281-22.391s-18.103-7.868-31.735-7.868h-195.354v-124.672h209.455c13.636 0 24.213-2.825 31.735-8.474 7.522-5.244 11.285-12.911 11.285-22.997 0-9.681-3.763-17.148-11.285-22.391s-18.099-7.868-31.735-7.868h-254.588z" />
<glyph unicode="&#xe93d;" glyph-name="kejar-e-ellipse" d="M352.617 244.442c7.993-6.455 18.806-9.681 32.441-9.681h254.588c13.636 0 24.213 2.624 31.735 7.868s11.285 12.71 11.285 22.391c0 10.086-3.763 17.754-11.285 22.997-7.522 5.649-18.099 8.474-31.735 8.474h-209.455v124.672h195.354c13.632 0 24.213 2.624 31.735 7.868s11.281 12.71 11.281 22.391c0 10.086-3.759 17.754-11.281 22.997s-18.103 7.868-31.735 7.868h-195.354v117.41h209.455c13.636 0 24.213 2.622 31.735 7.868 7.522 5.648 11.285 13.516 11.285 23.603 0 9.683-3.763 17.147-11.285 22.392s-18.099 7.868-31.735 7.868h-254.588c-13.635 0-24.448-3.228-32.441-9.683-7.523-6.455-11.284-15.534-11.284-27.234v-352.834c0-11.699 3.761-20.779 11.284-27.234zM512 85.333c-200.295 0-362.667 162.372-362.667 362.667s162.371 362.667 362.667 362.667c200.294 0 362.667-162.371 362.667-362.667s-162.372-362.667-362.667-362.667zM512 21.333c235.639 0 426.667 191.027 426.667 426.667 0 235.642-191.027 426.667-426.667 426.667-235.642 0-426.667-191.025-426.667-426.667 0-235.639 191.025-426.667 426.667-426.667z" />
<glyph unicode="&#xe93e;" glyph-name="kejar-f-bold-ellipse" d="M512-21.333c259.204 0 469.333 210.129 469.333 469.333 0 259.206-210.129 469.333-469.333 469.333-259.206 0-469.333-210.128-469.333-469.333 0-259.204 210.128-469.333 469.333-469.333zM387.421 234.667c-13.922 0-25.204 3.601-33.845 10.803-8.161 7.198-12.242 16.602-12.242 28.203v351.055c0 11.602 3.84 20.603 11.522 27.004 8.161 6.401 19.203 9.602 33.125 9.602h252.761c29.282 0 43.925-10.402 43.925-31.205 0-20.403-14.643-30.605-43.925-30.605h-205.952v-115.219h191.548c29.286 0 43.925-10.402 43.925-31.206 0-20.403-14.639-30.601-43.925-30.601h-191.548v-148.826c0-11.601-4.083-21.005-12.244-28.203-8.161-7.202-19.203-10.803-33.125-10.803z" />
<glyph unicode="&#xe93f;" glyph-name="kejar-f-ellipse" d="M353.575 245.564c8.641-7.202 19.923-10.803 33.845-10.803s24.964 3.601 33.125 10.803c8.16 7.198 12.244 16.602 12.244 28.203v148.821h191.548c29.286 0 43.925 10.202 43.925 30.605 0 20.804-14.639 31.206-43.925 31.206h-191.548v115.218h205.952c29.282 0 43.925 10.202 43.925 30.605 0 20.803-14.643 31.205-43.925 31.205h-252.761c-13.922 0-24.964-3.2-33.125-9.602-7.681-6.401-11.522-15.402-11.522-27.004v-351.055c0-11.601 4.081-21.005 12.242-28.203zM512 85.333c-200.295 0-362.667 162.372-362.667 362.667s162.371 362.667 362.667 362.667c200.294 0 362.667-162.371 362.667-362.667s-162.372-362.667-362.667-362.667zM512 21.333c235.639 0 426.667 191.027 426.667 426.667 0 235.642-191.027 426.667-426.667 426.667-235.642 0-426.667-191.025-426.667-426.667 0-235.639 191.025-426.667 426.667-426.667z" />
<glyph unicode="&#xe940;" glyph-name="kejar-g-bold-ellipse" d="M512-21.333c259.204 0 469.333 210.129 469.333 469.333 0 259.206-210.129 469.333-469.333 469.333-259.206 0-469.333-210.128-469.333-469.333 0-259.204 210.128-469.333 469.333-469.333zM654.127 464.819c8.58 0 15.484-2.756 20.706-8.26 5.222-5.116 7.834-12.002 7.834-20.655v-126.882c0-18.095-2.24-30.882-6.716-38.357s-13.615-13.572-27.418-18.295c-14.921-5.508-32.269-9.835-52.041-12.979-19.772-3.149-38.797-4.723-57.075-4.723-40.661 0-75.913 8.457-105.758 25.374-29.842 16.917-52.784 41.31-68.825 73.178-15.668 32.26-23.502 70.622-23.502 115.076 0 43.669 7.834 81.438 23.502 113.306 16.041 32.261 38.61 56.849 67.707 73.766 29.099 17.311 63.415 25.966 102.959 25.966 52.599 0 95.684-14.95 129.259-44.85 4.476-4.328 7.65-8.655 9.515-12.983 2.236-4.328 3.358-9.442 3.358-15.344 0-8.655-2.24-15.933-6.716-21.835s-9.886-8.852-16.226-8.852c-4.105 0-7.834 0.59-11.191 1.77-3.358 1.574-7.275 3.934-11.75 7.082-16.414 12.196-31.71 20.655-45.888 25.376-14.174 5.114-30.212 7.672-48.119 7.672-40.661 0-71.437-12.786-92.331-38.359-20.515-25.179-30.774-62.749-30.774-112.716 0-102.289 42.529-153.434 127.581-153.434 25.365 0 50.735 3.738 76.1 11.213v104.452h-63.232c-8.951 0-16.038 2.359-21.261 7.083-4.851 4.719-7.275 11.409-7.275 20.066 0 8.653 2.423 15.343 7.275 20.062 5.222 4.723 12.309 7.083 21.261 7.083h99.042z" />
<glyph unicode="&#xe941;" glyph-name="kejar-h-bold-ellipse" d="M512-21.333c259.204 0 469.333 210.125 469.333 469.333s-210.129 469.333-469.333 469.333c-259.206 0-469.333-210.125-469.333-469.333s210.128-469.333 469.333-469.333zM667.23 655.896c2.18-1.469 4.173-3.229 5.986-5.292 6.298-6.75 9.451-15.886 9.451-27.407v-349.803c0-11.52-3.337-20.855-10.005-27.998-6.302-7.159-14.639-10.731-25.020-10.731-10.748 0-19.268 3.571-25.57 10.731-6.302 7.142-9.451 16.478-9.451 27.998v147.187h-200.686v-147.187c0-11.52-3.336-20.855-10.007-27.998-6.3-7.159-14.823-10.731-25.571-10.731-10.377 0-18.901 3.571-25.573 10.731-6.3 7.142-9.451 16.478-9.451 27.998v349.803c0 11.521 3.151 20.656 9.451 27.407 6.299 7.156 14.825 10.729 25.573 10.729s19.271-3.573 25.571-10.729c3.982-4.032 6.773-8.907 8.378-14.636 1.086-3.865 1.63-8.125 1.63-12.771v-140.634h200.686v140.634c0 11.521 3.149 20.656 9.451 27.407 3.418 3.875 7.484 6.708 12.203 8.479 3.994 1.5 8.448 2.25 13.367 2.25 7.659 0 14.191-1.812 19.588-5.437z" />
<glyph unicode="&#xe942;" glyph-name="kejar-h-ellipse" d="M673.216 650.607c-6.302 7.151-14.822 10.726-25.57 10.726s-19.273-3.575-25.574-10.726c-6.302-6.753-9.451-15.891-9.451-27.412v-140.631h-200.686v140.631c0 11.521-3.335 20.658-10.006 27.412-6.301 7.151-14.825 10.726-25.572 10.726s-19.272-3.575-25.572-10.726c-6.301-6.753-9.451-15.891-9.451-27.412v-349.796c0-11.52 3.15-20.855 9.451-28.006 6.671-7.151 15.195-10.726 25.572-10.726 10.748 0 19.272 3.575 25.572 10.726 6.671 7.151 10.006 16.486 10.006 28.006v147.187h200.686v-147.187c0-11.52 3.149-20.855 9.451-28.006s14.827-10.726 25.574-10.726c10.377 0 18.714 3.575 25.015 10.726 6.669 7.151 10.005 16.486 10.005 28.006v349.796c0 11.521-3.149 20.658-9.451 27.412zM512 85.333c-200.295 0-362.667 162.372-362.667 362.667s162.371 362.667 362.667 362.667c200.294 0 362.667-162.371 362.667-362.667s-162.372-362.667-362.667-362.667zM512 21.333c235.639 0 426.667 191.027 426.667 426.667 0 235.642-191.027 426.667-426.667 426.667-235.642 0-426.667-191.025-426.667-426.667 0-235.639 191.025-426.667 426.667-426.667z" />
<glyph unicode="&#xe943;" glyph-name="kejar-g-ellipse" d="M674.833 456.653c-5.222 5.504-12.126 8.26-20.706 8.26h-99.042c-8.951 0-16.038-2.359-21.261-7.083-4.851-4.719-7.275-11.409-7.275-20.066 0-8.653 2.423-15.343 7.275-20.062 5.222-4.723 12.309-7.083 21.261-7.083h63.232v-104.452c-25.365-7.475-50.735-11.213-76.1-11.213-85.052 0-127.581 51.145-127.581 153.434 0 49.967 10.259 87.537 30.774 112.716 20.894 25.573 51.669 38.359 92.331 38.359 17.907 0 33.946-2.557 48.119-7.671 14.178-4.721 29.474-13.18 45.888-25.376 4.476-3.147 8.393-5.508 11.75-7.081 3.358-1.18 7.087-1.77 11.191-1.77 6.34 0 11.75 2.95 16.226 8.852s6.716 13.18 6.716 21.835c0 5.901-1.122 11.016-3.358 15.343-1.865 4.328-5.039 8.655-9.515 12.983-33.574 29.9-76.659 44.85-129.259 44.85-39.543 0-73.86-8.655-102.959-25.966-29.097-16.917-51.666-41.506-67.707-73.767-15.668-31.868-23.502-69.637-23.502-113.306 0-44.454 7.834-82.816 23.502-115.076 16.041-31.868 38.983-56.26 68.825-73.178 29.845-16.917 65.097-25.374 105.758-25.374 18.278 0 37.303 1.574 57.075 4.719 19.772 3.149 37.12 7.475 52.041 12.983 13.803 4.723 22.942 10.82 27.418 18.295s6.716 20.262 6.716 38.357v126.882c0 8.653-2.611 15.539-7.834 20.655zM512 85.333c-200.295 0-362.667 162.372-362.667 362.667s162.371 362.667 362.667 362.667c200.294 0 362.667-162.371 362.667-362.667s-162.372-362.667-362.667-362.667zM512 21.333c235.639 0 426.667 191.027 426.667 426.667 0 235.642-191.027 426.667-426.667 426.667-235.642 0-426.667-191.025-426.667-426.667 0-235.639 191.025-426.667 426.667-426.667z" />
<glyph unicode="&#xe944;" glyph-name="kejar-i-bold-ellipse" d="M512-21.333c259.204 0 469.333 210.129 469.333 469.333 0 259.206-210.129 469.333-469.333 469.333-259.206 0-469.333-210.128-469.333-469.333 0-259.204 210.128-469.333 469.333-469.333zM501.086 234.667c-9.591 0-17.365 3.575-23.317 10.726-5.623 7.151-8.435 16.486-8.435 28.006v349.796c0 11.521 2.812 20.658 8.435 27.412 5.952 7.151 13.726 10.726 23.317 10.726 9.92 0 17.694-3.575 23.317-10.726 5.952-6.753 8.93-15.891 8.93-27.412v-349.796c0-11.52-2.978-20.855-8.93-28.006-5.623-7.151-13.397-10.726-23.317-10.726z" />
<glyph unicode="&#xe945;" glyph-name="kejar-i-ellipse" d="M488.435 245.393c5.952-7.151 13.726-10.726 23.317-10.726 9.92 0 17.694 3.575 23.317 10.726 5.952 7.151 8.93 16.486 8.93 28.006v349.796c0 11.521-2.978 20.658-8.93 27.412-5.623 7.151-13.397 10.726-23.317 10.726-9.591 0-17.365-3.575-23.317-10.726-5.623-6.753-8.435-15.891-8.435-27.412v-349.796c0-11.52 2.812-20.855 8.435-28.006zM512 85.333c-200.295 0-362.667 162.372-362.667 362.667s162.371 362.667 362.667 362.667c200.294 0 362.667-162.371 362.667-362.667s-162.372-362.667-362.667-362.667zM512 21.333c235.639 0 426.667 191.027 426.667 426.667 0 235.642-191.027 426.667-426.667 426.667-235.642 0-426.667-191.025-426.667-426.667 0-235.639 191.025-426.667 426.667-426.667z" />
<glyph unicode="&#xe946;" glyph-name="kejar-j-bold-ellipse" d="M512-21.333c259.204 0 469.333 210.129 469.333 469.333 0 259.206-210.129 469.333-469.333 469.333-259.206 0-469.333-210.128-469.333-469.333 0-259.204 210.128-469.333 469.333-469.333zM471.061 234.756c-29.598-1.19-44.395 9.335-44.395 31.578 0 9.532 2.5 16.683 7.497 21.449 4.612 5.163 12.109 8.141 22.485 8.934l18.449 1.195c15.761 0.794 27.678 5.956 35.75 15.488s12.109 24.030 12.109 43.49v266.314c0 11.518 3.264 20.653 9.801 27.406 6.916 7.149 15.953 10.724 27.098 10.724 11.533 0 20.565-3.575 27.102-10.724 6.916-6.752 10.377-15.887 10.377-27.406v-266.314c0-75.068-35.938-115.379-107.819-120.939l-18.453-1.195z" />
<glyph unicode="&#xe947;" glyph-name="kejar-j-ellipse" d="M426.667 266.334c0-22.242 14.797-32.768 44.395-31.578l18.453 1.195c71.881 5.559 107.819 45.871 107.819 120.939v266.314c0 11.518-3.46 20.653-10.377 27.406-6.537 7.149-15.569 10.724-27.102 10.724-11.145 0-20.181-3.575-27.098-10.724-6.537-6.752-9.801-15.887-9.801-27.406v-266.314c0-19.46-4.036-33.958-12.109-43.49s-19.989-14.694-35.75-15.488l-18.449-1.195c-10.377-0.794-17.873-3.772-22.485-8.934-4.996-4.766-7.497-11.917-7.497-21.449zM512 85.333c-200.295 0-362.667 162.372-362.667 362.667s162.371 362.667 362.667 362.667c200.294 0 362.667-162.371 362.667-362.667s-162.372-362.667-362.667-362.667zM512 21.333c235.639 0 426.667 191.027 426.667 426.667 0 235.642-191.027 426.667-426.667 426.667-235.642 0-426.667-191.025-426.667-426.667 0-235.639 191.025-426.667 426.667-426.667z" />
<glyph unicode="&#xe948;" glyph-name="kejar-benar-salah" d="M585.375 395.96c12.493 12.498 32.758 12.498 45.251 0l105.375-105.37 105.375 105.37c12.493 12.498 32.758 12.498 45.251 0 12.498-12.498 12.498-32.758 0-45.256l-105.37-105.37 105.37-105.375c12.498-12.498 12.498-32.758 0-45.256-12.493-12.493-32.758-12.493-45.251 0l-105.375 105.375-105.375-105.375c-12.493-12.493-32.758-12.493-45.251 0-12.498 12.498-12.498 32.758 0 45.256l105.37 105.375-105.37 105.37c-12.498 12.498-12.498 32.758 0 45.256zM619.96 833.295c12.498-12.497 12.498-32.758 0-45.255l-319.999-320c-12.497-12.497-32.758-12.497-45.255 0l-149.333 149.334c-12.497 12.497-12.497 32.758 0 45.255s32.758 12.497 45.255 0l126.706-126.706 297.371 297.373c12.498 12.496 32.758 12.496 45.256 0zM875.96 811.961c12.498-12.497 12.498-32.758 0-45.255l-682.666-682.667c-12.497-12.498-32.758-12.498-45.255 0s-12.497 32.758 0 45.256l682.665 682.666c12.498 12.497 32.758 12.497 45.256 0z" />
<glyph unicode="&#xe949;" glyph-name="kejar-esai" d="M138.669 234.665c0-17.669 14.327-32 32-32h597.331c17.674 0 32 14.331 32 32 0 17.674-14.326 32-32 32h-597.331c-17.673 0-32-14.326-32-32zM138.669 448.001c0-17.675 14.327-32.001 32-32.001h682.666c17.674 0 32 14.326 32 32.001 0 17.673-14.326 32-32 32h-682.666c-17.673 0-32-14.327-32-32zM138.669 661.334c0-17.673 14.327-32 32-32h426.666c17.674 0 32 14.327 32 32s-14.326 32-32 32h-426.666c-17.673 0-32-14.327-32-32z" />
<glyph unicode="&#xe94a;" glyph-name="kejar-isian-bahasa" d="M277.962 234.665c-1.805 3.615-3.34 7.767-4.604 12.462s-2.347 9.656-3.25 14.894c-4.153-4.516-8.937-8.755-14.354-12.728s-11.465-7.496-18.146-10.563c-6.5-2.888-13.722-5.146-21.667-6.774-7.944-1.802-16.521-2.703-25.729-2.703-14.986 0-28.799 2.166-41.438 6.497-12.458 4.332-23.201 10.383-32.229 18.145-9.028 7.767-16.070 16.973-21.125 27.628-5.055 10.834-7.583 22.569-7.583 35.205 0 30.879 11.465 54.707 34.396 71.501 23.111 16.973 57.507 25.457 103.187 25.457h41.979v17.336c0 14.085-4.604 25.187-13.813 33.312-9.208 8.306-22.479 12.458-39.813 12.458-15.347 0-26.542-3.34-33.583-10.021-7.042-6.5-10.563-15.257-10.563-26.272h-75.292c0 12.46 2.708 24.286 8.125 35.481 5.597 11.194 13.632 21.034 24.104 29.521 10.653 8.486 23.562 15.166 38.729 20.042 15.347 5.055 32.861 7.583 52.542 7.583 17.694 0 34.125-2.167 49.292-6.5 15.347-4.333 28.618-10.743 39.812-19.229s19.952-19.229 26.271-32.229c6.319-12.819 9.479-27.715 9.479-44.688v-125.665c0-15.708 0.993-28.708 2.979-38.999s4.875-19.139 8.667-26.542v-4.608h-76.375zM206.192 287.478c7.583 0 14.625 0.906 21.125 2.708 6.5 1.807 12.368 4.152 17.604 7.045 5.236 2.888 9.75 6.139 13.542 9.748 3.791 3.794 6.771 7.583 8.937 11.377v50.376h-38.458c-11.736 0-21.757-1.178-30.063-3.523-8.306-2.166-15.076-5.325-20.313-9.482-5.236-3.968-9.118-8.847-11.646-14.623-2.528-5.596-3.791-11.735-3.791-18.417 0-10.112 3.521-18.509 10.563-25.185 7.222-6.682 18.055-10.025 32.5-10.025zM647.695 378.209c0-21.847-2.437-41.892-7.316-60.124-4.695-18.237-11.822-33.946-21.391-47.124-9.574-13.184-21.489-23.475-35.753-30.879-14.264-7.219-30.874-10.829-49.833-10.829-17.152 0-32.049 3.159-44.687 9.477-12.458 6.497-23.201 15.529-32.229 27.085l-3.521-31.15h-67.708v416.002h75.292v-149.5c8.667 10.111 18.868 17.966 30.604 23.563 11.916 5.597 25.82 8.396 41.707 8.396 19.139 0 35.84-3.701 50.104-11.104 14.444-7.403 26.45-17.694 36.024-30.875 9.569-13.18 16.696-28.979 21.391-47.396 4.879-18.237 7.316-38.185 7.316-59.853v-5.688zM572.401 383.898c0 11.914-0.901 23.199-2.708 33.853-1.802 10.655-4.966 19.953-9.477 27.894-4.337 8.126-10.291 14.536-17.874 19.231-7.588 4.695-17.065 7.042-28.442 7.042-13.72 0-24.914-2.889-33.581-8.667-8.486-5.778-15.076-13.722-19.771-23.832v-116.731c4.695-10.112 11.284-18.053 19.771-23.834 8.667-5.775 20.042-8.668 34.124-8.668 11.377 0 20.767 2.171 28.17 6.502 7.398 4.516 13.266 10.655 17.603 18.417 4.511 7.946 7.675 17.244 9.477 27.894 1.807 10.834 2.708 22.569 2.708 35.21v5.688zM802.109 289.377c7.404 0 14.449 1.080 21.125 3.246 6.682 2.171 12.549 5.238 17.608 9.211 5.053 3.973 8.934 8.755 11.643 14.351 2.893 5.601 4.152 11.827 3.794 18.688h70.958c0.358-15.165-2.801-29.251-9.482-42.25-6.497-13-15.437-24.192-26.808-33.582-11.377-9.39-24.648-16.788-39.813-22.205-14.986-5.238-30.874-7.854-47.667-7.854-22.748 0-42.701 3.789-59.853 11.372-17.157 7.767-31.508 18.33-43.064 31.688-11.377 13.363-20.040 28.979-25.999 46.853-5.78 18.058-8.668 37.376-8.668 57.958v8.125c0 20.588 2.888 39.813 8.668 57.687 5.775 18.058 14.444 33.766 25.999 47.127s25.82 23.924 42.793 31.688c17.152 7.764 37.012 11.646 59.581 11.646 18.058 0 34.76-2.708 50.104-8.125 15.35-5.417 28.529-13.090 39.542-23.021 11.192-9.75 19.86-21.667 25.999-35.75 6.139-13.903 9.027-29.519 8.668-46.856h-70.958c0.358 7.224-0.722 14.085-3.251 20.582-2.529 6.502-6.231 12.1-11.105 16.794s-10.742 8.396-17.603 11.104c-6.861 2.889-14.356 4.333-22.477 4.333-11.919 0-21.76-2.437-29.522-7.312-7.767-4.875-13.993-11.375-18.688-19.502-4.516-8.125-7.767-17.423-9.748-27.894-1.807-10.47-2.708-21.304-2.708-32.502v-8.125c0-11.372 0.901-22.385 2.708-33.039 1.802-10.47 4.961-19.773 9.477-27.894 4.695-7.946 10.921-14.356 18.688-19.231 7.941-4.874 17.966-7.311 30.060-7.311zM96 64c0 17.674 14.327 32 32 32h768c17.674 0 32-14.326 32-32s-14.326-32-32-32h-768c-17.673 0-32 14.326-32 32z" />
<glyph unicode="&#xe94b;" glyph-name="kejar-isian-matematika" d="M279.314 192h-76.104v302.521l-99.666-35.75v65.542l171.708 62.021h4.062v-394.333zM641.464 192h-268.94v51.456l127.563 137.042c9.93 10.834 18.328 20.675 25.189 29.522s12.365 16.881 16.517 24.105c4.337 7.404 7.404 14.264 9.211 20.583 1.987 6.32 2.98 12.458 2.98 18.417 0 8.847-1.265 16.701-3.794 23.563-2.524 6.861-6.139 12.639-10.834 17.333-4.511 4.875-10.020 8.577-16.517 11.104-6.323 2.528-13.363 3.791-21.127 3.791-20.764 0-36.292-5.777-46.583-17.333-10.111-11.555-15.166-27.715-15.166-48.479h-75.562c0 17.514 3.34 34.035 10.021 49.563 6.681 15.708 16.069 29.431 28.167 41.167 12.278 11.736 26.993 20.944 44.146 27.625 17.333 6.861 36.472 10.292 57.417 10.292 20.041 0 37.736-2.799 53.086-8.396 15.524-5.597 28.436-13.452 38.728-23.563 10.47-10.111 18.417-22.299 23.834-36.562 5.417-14.084 8.125-29.702 8.125-46.854 0-13-2.079-25.458-6.231-37.376-3.973-11.735-9.748-23.383-17.331-34.939-7.404-11.551-16.343-23.378-26.813-35.476-10.476-11.919-22.118-24.463-34.939-37.647l-74.208-78.541h173.065v-60.396zM748.211 422.211h40.899c20.582 0 35.84 5.146 45.773 15.437 9.928 10.471 14.894 24.102 14.894 40.894 0 7.764-1.172 14.806-3.523 21.125-2.166 6.5-5.504 12.007-10.020 16.521-4.516 4.695-10.291 8.305-17.331 10.833-6.861 2.528-14.899 3.791-24.105 3.791-7.583 0-14.715-1.083-21.396-3.25-6.502-2.167-12.278-5.327-17.331-9.479-4.879-3.973-8.76-8.847-11.648-14.625s-4.332-12.278-4.332-19.5h-75.295c0 16.070 3.251 30.694 9.748 43.875 6.682 13.181 15.8 24.465 27.356 33.854 11.556 9.569 25.098 16.972 40.627 22.209 15.708 5.236 32.589 7.854 50.642 7.854 19.502 0 37.376-2.438 53.627-7.313 16.251-4.694 30.152-11.826 41.708-21.395 11.556-9.389 20.495-21.125 26.813-35.209 6.502-13.902 9.748-30.062 9.748-48.479 0-8.486-1.265-16.882-3.789-25.188-2.529-8.122-6.231-15.889-11.105-23.293s-10.926-14.264-18.145-20.582c-7.224-6.139-15.529-11.464-24.919-15.98 11.013-3.973 20.495-9.027 28.442-15.165 8.12-6.139 14.802-13.179 20.040-21.125 5.238-7.762 9.119-16.343 11.643-25.728 2.529-9.39 3.794-19.323 3.794-29.793 0-18.417-3.523-34.847-10.563-49.29s-16.701-26.634-28.979-36.562c-12.278-9.754-26.9-17.244-43.873-22.482-16.794-5.053-34.939-7.583-54.441-7.583-16.788 0-33.219 2.258-49.29 6.769-15.887 4.695-30.060 11.648-42.522 20.859-12.457 9.385-22.477 21.125-30.060 35.205-7.404 14.085-11.105 30.694-11.105 49.833h75.29c0-7.583 1.444-14.623 4.337-21.125 2.888-6.318 6.948-11.827 12.186-16.517 5.417-4.516 11.735-8.125 18.959-10.834 7.219-2.529 15.165-3.794 23.834-3.794 19.139 0 34.125 5.059 44.959 15.165 10.834 10.112 16.251 23.834 16.251 41.17 0 10.65-1.536 19.768-4.608 27.351-3.067 7.583-7.583 13.814-13.542 18.688-5.775 4.874-12.815 8.489-21.125 10.834-8.12 2.35-17.331 3.523-27.622 3.523h-40.899v58.501zM96 64c0 17.674 14.327 32 32 32h768c17.674 0 32-14.326 32-32s-14.326-32-32-32h-768c-17.673 0-32 14.326-32 32z" />
<glyph unicode="&#xe94c;" glyph-name="kejar-mencocokkan" d="M213.334 682.666c11.782 0 21.333 9.551 21.333 21.334s-9.551 21.334-21.333 21.334c-11.782 0-21.334-9.551-21.334-21.334s9.551-21.334 21.334-21.334zM213.334 426.665c11.782 0 21.333 9.554 21.333 21.335s-9.551 21.333-21.333 21.333c-11.782 0-21.334-9.551-21.334-21.333s9.551-21.335 21.334-21.335zM213.334 170.665c11.782 0 21.333 9.554 21.333 21.335s-9.551 21.335-21.333 21.335c-11.782 0-21.334-9.554-21.334-21.335s9.551-21.335 21.334-21.335zM213.334 618.666c47.128 0 85.333 38.205 85.333 85.334s-38.205 85.334-85.333 85.334c-47.129 0-85.334-38.205-85.334-85.334s38.205-85.334 85.334-85.334zM213.334 362.665c47.128 0 85.333 38.205 85.333 85.335 0 47.128-38.205 85.333-85.333 85.333s-85.334-38.205-85.334-85.333c0-47.13 38.205-85.335 85.334-85.335zM298.666 192c0-47.13-38.205-85.335-85.333-85.335s-85.334 38.205-85.334 85.335c0 47.13 38.205 85.335 85.334 85.335s85.333-38.205 85.333-85.335zM810.665 682.666c11.786 0 21.335 9.551 21.335 21.334s-9.549 21.334-21.335 21.334c-11.781 0-21.33-9.551-21.33-21.334s9.549-21.334 21.33-21.334zM810.665 426.665c11.786 0 21.335 9.554 21.335 21.335s-9.549 21.333-21.335 21.333c-11.781 0-21.33-9.551-21.33-21.333s9.549-21.335 21.33-21.335zM810.665 170.665c11.786 0 21.335 9.554 21.335 21.335s-9.549 21.335-21.335 21.335c-11.781 0-21.33-9.554-21.33-21.335s9.549-21.335 21.33-21.335zM810.665 618.666c47.13 0 85.335 38.205 85.335 85.334s-38.205 85.334-85.335 85.334c-47.124 0-85.33-38.205-85.33-85.334s38.205-85.334 85.33-85.334zM810.665 362.665c47.13 0 85.335 38.205 85.335 85.335 0 47.128-38.205 85.333-85.335 85.333-47.124 0-85.33-38.205-85.33-85.333 0-47.13 38.205-85.335 85.33-85.335zM896 192c0-47.13-38.205-85.335-85.335-85.335-47.124 0-85.33 38.205-85.33 85.335s38.205 85.335 85.33 85.335c47.13 0 85.335-38.205 85.335-85.335zM352 703.999c0 17.673 14.327 32 32 32h256c17.674 0 32-14.327 32-32s-14.326-32-32-32h-256c-17.673 0-32 14.327-32 32zM352 448c0 17.673 14.327 31.999 32 31.999h256c17.674 0 32-14.327 32-31.999 0-17.674-14.326-32-32-32h-256c-17.673 0-32 14.326-32 32zM352 192c0 17.674 14.327 32 32 32h256c17.674 0 32-14.326 32-32s-14.326-32-32-32h-256c-17.673 0-32 14.326-32 32z" />
<glyph unicode="&#xe94d;" glyph-name="kejar-mengurutkan-vertikal" d="M671.995 205.256v434.744c0 17.673 14.326 32 32 32s32-14.327 32-32v-434.744l94.705 94.705c12.498 12.498 32.758 12.498 45.256 0s12.498-32.758 0-45.256l-149.33-149.33c-12.498-12.498-32.758-12.498-45.256 0l-149.335 149.33c-12.498 12.498-12.498 32.758 0 45.256s32.758 12.498 45.256 0l94.705-94.705zM351.996 490.666v-256.002c0-17.669-14.327-32-32-32s-32 14.331-32 32v456.080l-94.706-94.706c-12.496-12.497-32.758-12.497-45.255 0s-12.497 32.758 0 45.255l149.334 149.333c12.496 12.497 32.758 12.497 45.255 0l149.334-149.333c12.496-12.497 12.496-32.758 0-45.255s-32.758-12.497-45.255 0l-94.706 94.706v-200.079z" />
<glyph unicode="&#xe94e;" glyph-name="kejar-pilih-centang" d="M341.338 736.001c-17.673 0-32-14.327-32-32s14.327-32 32-32h511.997c17.674 0 32 14.327 32 32s-14.326 32-32 32h-511.997zM341.338 480.001c-17.673 0-32-14.327-32-32 0-17.675 14.327-32.001 32-32.001h511.997c17.674 0 32 14.326 32 32.001 0 17.673-14.326 32-32 32h-511.997zM341.338 224c-17.673 0-32-14.326-32-32s14.327-32 32-32h511.997c17.674 0 32 14.326 32 32s-14.326 32-32 32h-511.997zM213.338 448.001c0-23.563-19.103-42.665-42.667-42.665s-42.666 19.103-42.666 42.665c0 23.564 19.103 42.666 42.666 42.666s42.667-19.102 42.667-42.666zM298.163 813.63c13.418-11.502 14.972-31.703 3.471-45.122l-128-149.334c-5.8-6.767-14.161-10.809-23.068-11.151s-17.552 3.046-23.855 9.349l-64 64c-12.497 12.496-12.497 32.758 0 45.255s32.758 12.497 45.255 0l39.565-39.565 105.511 123.097c11.502 13.418 31.703 14.972 45.122 3.471zM298.163 301.629c13.418-11.5 14.972-31.703 3.471-45.123l-128-149.33c-5.8-6.769-14.161-10.813-23.068-11.151-8.907-0.343-17.552 3.046-23.855 9.349l-64 64c-12.497 12.493-12.497 32.758 0 45.256 12.496 12.493 32.758 12.493 45.255 0l39.565-39.567 105.511 123.095c11.502 13.42 31.703 14.971 45.122 3.471z" />
<glyph unicode="&#xe94f;" glyph-name="kejar-pilihan-ganda" d="M746.67 106.854c-58.911 0-106.67 47.754-106.67 106.665s47.759 106.67 106.67 106.67c58.911 0 106.665-47.759 106.665-106.67s-47.754-106.665-106.665-106.665zM746.67 42.854c94.254 0 170.665 76.411 170.665 170.665 0 94.259-76.411 170.67-170.665 170.67-94.259 0-170.67-76.411-170.67-170.67 0-94.254 76.411-170.665 170.67-170.665zM746.67 576.187c-58.911 0-106.67 47.756-106.67 106.667s47.759 106.666 106.67 106.666c58.911 0 106.665-47.756 106.665-106.666s-47.754-106.667-106.665-106.667zM746.67 512.187c94.254 0 170.665 76.41 170.665 170.667s-76.411 170.666-170.665 170.666c-94.259 0-170.67-76.41-170.67-170.666s76.411-170.667 170.67-170.667zM277.336 576.187c-58.911 0-106.667 47.756-106.667 106.667s47.756 106.666 106.667 106.666c58.91 0 106.666-47.756 106.666-106.666s-47.756-106.667-106.666-106.667zM277.336 512.187c94.257 0 170.666 76.41 170.666 170.667s-76.41 170.666-170.666 170.666c-94.257 0-170.667-76.41-170.667-170.666s76.41-170.667 170.667-170.667zM445.414 298.772c12.497-12.498 12.497-30.167 0-42.66l-201.373-203.965c-12.497-12.493-32.758-12.493-45.255 0l-82.745 75.965c-12.496 12.498-12.497 30.172 0 42.67 12.497 12.493 30.17 12.493 42.667 0l62.706-50.749 181.334 178.739c12.496 12.498 30.17 12.498 42.666 0z" />
<glyph unicode="&#xe950;" glyph-name="kejar-rumpang-pg" d="M276.035 534.627c12.497 12.497 32.758 12.497 45.255 0l190.706-190.706 190.704 190.706c12.498 12.497 32.758 12.497 45.256 0s12.498-32.758 0-45.255l-213.33-213.332c-12.498-12.498-32.76-12.498-45.257 0l-213.334 213.332c-12.497 12.497-12.497 32.758 0 45.255zM255.996 821.333c-64.801 0-117.334-52.532-117.334-117.334v-511.999c0-64.804 52.532-117.335 117.334-117.335h511.999c64.804 0 117.335 52.531 117.335 117.335v511.999c0 64.801-52.531 117.334-117.335 117.334h-511.999zM202.662 703.999c0 29.455 23.878 53.334 53.334 53.334h511.999c29.455 0 53.335-23.878 53.335-53.334v-511.999c0-29.455-23.88-53.335-53.335-53.335h-511.999c-29.455 0-53.334 23.88-53.334 53.335v511.999z" />
<glyph unicode="&#xe951;" glyph-name="kejar-teks-merinci" d="M96 746.666c0 41.238 33.43 74.667 74.666 74.667h682.669c41.236 0 74.665-33.43 74.665-74.667v-42.666c0-41.238-33.428-74.666-74.665-74.666h-682.669c-41.237 0-74.666 33.429-74.666 74.666v42.666zM170.666 757.333c-5.891 0-10.666-4.776-10.666-10.667v-42.666c0-5.891 4.775-10.666 10.666-10.666h682.669c5.888 0 10.665 4.775 10.665 10.666v42.666c0 5.891-4.777 10.667-10.665 10.667h-682.669zM96 469.334c0 41.237 33.43 74.666 74.666 74.666h682.669c41.236 0 74.665-33.43 74.665-74.666v-42.669c0-41.236-33.428-74.665-74.665-74.665h-682.669c-41.237 0-74.666 33.428-74.666 74.665v42.669zM170.666 480c-5.891 0-10.666-4.775-10.666-10.666v-42.669c0-5.888 4.775-10.665 10.666-10.665h682.669c5.888 0 10.665 4.777 10.665 10.665v42.669c0 5.891-4.777 10.666-10.665 10.666h-682.669zM96 192c0 41.236 33.43 74.665 74.666 74.665h682.669c41.236 0 74.665-33.428 74.665-74.665v-42.665c0-41.236-33.428-74.67-74.665-74.67h-682.669c-41.237 0-74.666 33.434-74.666 74.67v42.665zM170.666 202.665c-5.891 0-10.666-4.772-10.666-10.665v-42.665c0-5.893 4.775-10.67 10.666-10.67h682.669c5.888 0 10.665 4.777 10.665 10.67v42.665c0 5.893-4.777 10.665-10.665 10.665h-682.669z" />
<glyph unicode="&#xe952;" glyph-name="kejar-ya-tidak" d="M875.96 811.961c12.493-12.497 12.493-32.758 0-45.255l-682.669-682.667c-12.496-12.498-32.758-12.498-45.255 0s-12.497 32.758 0 45.256l682.668 682.666c12.498 12.497 32.758 12.497 45.256 0zM126.704 833.389c12.497 12.496 32.758 12.496 45.255 0l126.706-126.706 126.706 126.706c12.497 12.496 32.758 12.496 45.255 0s12.497-32.758 0-45.255l-139.961-139.961v-200.078c0-17.671-14.327-32.002-32-32.002s-32 14.331-32 32.002v200.078l-139.961 139.961c-12.496 12.497-12.496 32.758 0 45.255zM630.042 435.84c13.153 4.306 27.576-0.333 35.763-11.489l176.86-241.172v222.249c0 17.674 14.326 32 32 32s32-14.326 32-32v-320c0-13.834-8.893-26.107-22.047-30.413-13.148-4.306-27.576 0.333-35.758 11.489l-176.86 241.178v-222.254c0-17.674-14.331-32-32-32-17.674 0-32 14.326-32 32v320c0 13.839 8.893 26.107 22.042 30.413z" />
<glyph unicode="&#xe953;" glyph-name="kejar-table" d="M128 736.052c0 53.019 42.981 96 96 96h554.665c53.023 0 96-42.981 96-96v-554.665c0-53.023-42.977-96-96-96h-554.665c-53.019 0-96 42.977-96 96v554.665zM224 768.052c-17.673 0-32-14.327-32-32v-245.334h277.334v277.334h-245.334zM533.335 768.052v-277.334h277.33v245.334c0 17.673-14.326 32-32 32h-245.33zM810.665 426.716h-277.33v-277.33h245.33c17.674 0 32 14.326 32 32v245.33zM469.334 149.386v277.33h-277.334v-245.33c0-17.674 14.327-32 32-32h245.334z" />
<glyph unicode="" glyph-name="kejar-table" d="M128 736.052c0 53.019 42.981 96 96 96h554.665c53.023 0 96-42.981 96-96v-554.665c0-53.023-42.977-96-96-96h-554.665c-53.019 0-96 42.977-96 96v554.665zM224 768.052c-17.673 0-32-14.327-32-32v-245.334h277.334v277.334h-245.334zM533.335 768.052v-277.334h277.33v245.334c0 17.673-14.326 32-32 32h-245.33zM810.665 426.716h-277.33v-277.33h245.33c17.674 0 32 14.326 32 32v245.33zM469.334 149.386v277.33h-277.334v-245.33c0-17.674 14.327-32 32-32h245.334z" />
<glyph unicode="kejar-ya-tidak" glyph-name="kejar-ya-tidak" d="M875.96 811.961c12.493-12.497 12.493-32.758 0-45.255l-682.669-682.667c-12.496-12.498-32.758-12.498-45.255 0s-12.497 32.758 0 45.256l682.668 682.666c12.498 12.497 32.758 12.497 45.256 0zM126.704 833.389c12.497 12.496 32.758 12.496 45.255 0l126.706-126.706 126.706 126.706c12.497 12.496 32.758 12.496 45.255 0s12.497-32.758 0-45.255l-139.961-139.961v-200.078c0-17.671-14.327-32.002-32-32.002s-32 14.331-32 32.002v200.078l-139.961 139.961c-12.496 12.497-12.496 32.758 0 45.255zM630.042 435.84c13.153 4.306 27.576-0.333 35.763-11.489l176.86-241.172v222.249c0 17.674 14.326 32 32 32s32-14.326 32-32v-320c0-13.834-8.893-26.107-22.047-30.413-13.148-4.306-27.576 0.333-35.758 11.489l-176.86 241.178v-222.254c0-17.674-14.331-32-32-32-17.674 0-32 14.326-32 32v320c0 13.839 8.893 26.107 22.042 30.413z" />
<glyph unicode="kejar-upload" glyph-name="kejar-upload" d="M480.001 722.745v-402.745c0-17.674 14.327-32 31.999-32 17.674 0 32 14.326 32 32v402.745l105.375-105.373c12.493-12.497 32.758-12.497 45.256 0 12.493 12.497 12.493 32.758 0 45.255l-160 160c-12.498 12.497-32.76 12.497-45.257 0l-160-160c-12.497-12.497-12.497-32.758 0-45.255s32.758-12.497 45.255 0l105.373 105.373zM192.006 416c0 17.674-14.327 32-32 32s-32-14.326-32-32v-256c0-53.018 42.981-96 96-96h575.994c53.018 0 96 42.982 96 96v256c0 17.674-14.326 32-32 32s-32-14.326-32-32v-256c0-17.674-14.326-32-32-32h-575.994c-17.673 0-32 14.326-32 32v256z" />
<glyph unicode="kejar-underlined" glyph-name="kejar-underlined" d="M320 746.667c17.673 0 32-14.327 32-32v-266.79c0-20.693 1.049-37.918 5.841-53.299 6.808-21.858 19.852-51.439 43.585-75.221 22.916-22.963 57.193-42.022 110.574-42.022s87.659 19.059 110.575 42.022c23.731 23.782 36.774 53.363 43.584 75.221 4.791 15.381 5.841 32.606 5.841 53.299v266.79c0 17.673 14.327 32 32 32s32-14.327 32-32v-266.79c0-21.769-0.9-47.177-8.738-72.333-8.512-27.332-25.673-67.614-59.388-101.397-34.534-34.603-84.954-60.813-155.874-60.813s-121.342 26.21-155.875 60.813c-33.716 33.783-50.875 74.065-59.389 101.397-7.836 25.156-8.737 50.564-8.737 72.333v266.79c0 17.673 14.327 32 32 32zM288 117.333c0 17.673 14.327 32 32 32h384c17.673 0 32-14.327 32-32s-14.327-32-32-32h-384c-17.673 0-32 14.327-32 32z" />
<glyph unicode="kejar-top" glyph-name="kejar-top" d="M489.374 752.227c12.497 12.497 32.755 12.497 45.252 0l277.333-277.334c12.497-12.497 12.497-32.759 0-45.257-12.497-12.493-32.755-12.493-45.252 0l-222.707 222.708v-498.744c0-17.673-14.327-32-32-32s-32 14.327-32 32v498.744l-222.706-222.708c-12.497-12.493-32.758-12.493-45.255 0-12.497 12.497-12.497 32.759 0 45.257l277.335 277.334z" />
<glyph unicode="kejar-teks-merinci" glyph-name="kejar-teks-merinci" d="M96 746.666c0 41.238 33.43 74.667 74.666 74.667h682.669c41.236 0 74.665-33.43 74.665-74.667v-42.666c0-41.238-33.428-74.666-74.665-74.666h-682.669c-41.237 0-74.666 33.429-74.666 74.666v42.666zM170.666 757.333c-5.891 0-10.666-4.776-10.666-10.667v-42.666c0-5.891 4.775-10.666 10.666-10.666h682.669c5.888 0 10.665 4.775 10.665 10.666v42.666c0 5.891-4.777 10.667-10.665 10.667h-682.669zM96 469.334c0 41.237 33.43 74.666 74.666 74.666h682.669c41.236 0 74.665-33.43 74.665-74.666v-42.669c0-41.236-33.428-74.665-74.665-74.665h-682.669c-41.237 0-74.666 33.428-74.666 74.665v42.669zM170.666 480c-5.891 0-10.666-4.775-10.666-10.666v-42.669c0-5.888 4.775-10.665 10.666-10.665h682.669c5.888 0 10.665 4.777 10.665 10.665v42.669c0 5.891-4.777 10.666-10.665 10.666h-682.669zM96 192c0 41.236 33.43 74.665 74.666 74.665h682.669c41.236 0 74.665-33.428 74.665-74.665v-42.665c0-41.236-33.428-74.67-74.665-74.67h-682.669c-41.237 0-74.666 33.434-74.666 74.67v42.665zM170.666 202.665c-5.891 0-10.666-4.772-10.666-10.665v-42.665c0-5.893 4.775-10.67 10.666-10.67h682.669c5.888 0 10.665 4.777 10.665 10.67v42.665c0 5.893-4.777 10.665-10.665 10.665h-682.669z" />
<glyph unicode="kejar-table" glyph-name="kejar-table" d="M128 736.052c0 53.019 42.981 96 96 96h554.665c53.023 0 96-42.981 96-96v-554.665c0-53.023-42.977-96-96-96h-554.665c-53.019 0-96 42.977-96 96v554.665zM224 768.052c-17.673 0-32-14.327-32-32v-245.334h277.334v277.334h-245.334zM533.335 768.052v-277.334h277.33v245.334c0 17.673-14.326 32-32 32h-245.33zM810.665 426.716h-277.33v-277.33h245.33c17.674 0 32 14.326 32 32v245.33zM469.334 149.386v277.33h-277.334v-245.33c0-17.674 14.327-32 32-32h245.334z" />
<glyph unicode="kejar-sudah-dikerjakan-small" glyph-name="kejar-sudah-dikerjakan-small" d="M512 704.052c-141.312 0-256-114.688-256-256s114.688-256.001 256-256.001c141.312 0 256 114.688 256 256.001s-114.688 256-256 256zM442.624 338.227l-91.904 91.904c-9.984 9.984-9.984 26.113 0 36.097s26.112 9.984 36.096 0l73.984-73.729 176.128 176.129c9.984 9.984 26.112 9.984 36.096 0s9.984-26.112 0-36.096l-194.304-194.305c-9.728-9.984-26.112-9.984-36.096 0z" />
<glyph unicode="kejar-sudah-dikerjakan" glyph-name="kejar-sudah-dikerjakan" d="M512 874.667c-235.519 0-426.665-191.146-426.665-426.666s191.146-426.665 426.665-426.665c235.52 0 426.67 191.145 426.67 426.665s-191.15 426.666-426.67 426.666zM396.375 264.96l-153.174 153.175c-16.64 16.64-16.64 43.519 0 60.159s43.52 16.64 60.16 0l123.306-122.879 293.548 293.545c16.64 16.64 43.52 16.64 60.16 0s16.64-43.52 0-60.16l-323.841-323.841c-16.214-16.64-43.52-16.64-60.16 0z" />
<glyph unicode="kejar-stage" glyph-name="kejar-stage" d="M234.666 614.459v136.415l102.311-68.207-102.311-68.208zM170.666 594.529c0-42.597 47.475-68.005 82.917-44.376l132.208 88.138c31.666 21.11 31.666 67.641 0 88.752l-132.208 88.138c-35.443 23.628-82.917-1.779-82.917-44.376v-176.276zM672 394.665c88.366 0 160 71.636 160 160.002s-71.634 160-160 160h-72.561c-11.069 19.129-31.749 32-55.439 32-35.347 0-64.001-28.654-64.001-64s28.654-64 64.001-64c23.69 0 44.37 12.87 55.439 32h72.561c53.018 0 96-42.981 96-96s-42.982-96-96-96h-362.667c-88.366 0-160-71.636-160-160.002s71.634-160 160-160h392.563c11.064-19.128 31.749-32 55.439-32 35.343 0 64 28.657 64 64 0 35.348-28.657 64-64 64-23.69 0-44.375-12.867-55.439-32h-392.563c-53.020 0-96 42.982-96 96 0 53.023 42.98 96 96 96h362.667z" />
<glyph unicode="kejar-soal-benar" glyph-name="kejar-soal-benar" d="M383.999 270.080l-148.053 148.055c-16.64 16.64-43.52 16.64-60.16 0s-16.64-43.52 0-60.16l178.346-178.35c16.64-16.64 43.52-16.64 60.16 0l451.412 451.415c16.64 16.64 16.64 43.52 0 60.16s-43.52 16.64-60.16 0l-421.545-421.119z" />
<glyph unicode="kejar-show-password" glyph-name="kejar-show-password" d="M112.253 448c69.989-151.249 222.699-256 399.747-256 177.050 0 329.758 104.751 399.748 256-69.99 151.248-222.699 256-399.748 256s-329.759-104.751-399.747-256zM981.333 448c-73.813-187.307-256-320-469.333-320s-395.52 132.693-469.333 320c73.813 187.307 256 320 469.333 320s395.52-132.693 469.333-320zM512 586.667c-76.582 0-138.667-62.084-138.667-138.667s62.084-138.667 138.667-138.667c76.582 0 138.667 62.084 138.667 138.667s-62.084 138.667-138.667 138.667zM309.333 448c0 111.93 90.737 202.667 202.667 202.667 111.932 0 202.667-90.737 202.667-202.667 0-111.932-90.735-202.667-202.667-202.667-111.93 0-202.667 90.735-202.667 202.667z" />
<glyph unicode="kejar-show" glyph-name="kejar-show" d="M811.96 555.96c12.498-12.497 12.498-32.758 0-45.255l-277.335-277.336c-12.493-12.493-32.756-12.493-45.253 0l-277.334 277.336c-12.497 12.497-12.497 32.758 0 45.255s32.758 12.497 45.255 0l254.706-254.705 254.705 254.705c12.498 12.497 32.758 12.497 45.256 0z" />
<glyph unicode="kejar-search" glyph-name="search" d="M704 512.051c0 141.386-114.615 256.001-256 256.001s-256-114.615-256-256.001c0-141.385 114.615-256 256-256s256 114.615 256 256zM650.517 264.277c-55.164-45.141-125.675-72.226-202.517-72.226-176.731 0-320 143.27-320 320 0 176.732 143.269 320.001 320 320.001s320-143.269 320-320.001c0-76.838-27.085-147.354-72.226-202.517l177.6-177.6c12.497-12.497 12.497-32.759 0-45.252-12.497-12.497-32.759-12.497-45.257 0l-177.6 177.596z" />
<glyph unicode="kejar-rumpang-pg" glyph-name="kejar-rumpang-pg" d="M276.035 534.627c12.497 12.497 32.758 12.497 45.255 0l190.706-190.706 190.704 190.706c12.498 12.497 32.758 12.497 45.256 0s12.498-32.758 0-45.255l-213.33-213.332c-12.498-12.498-32.76-12.498-45.257 0l-213.334 213.332c-12.497 12.497-12.497 32.758 0 45.255zM255.996 821.333c-64.801 0-117.334-52.532-117.334-117.334v-511.999c0-64.804 52.532-117.335 117.334-117.335h511.999c64.804 0 117.335 52.531 117.335 117.335v511.999c0 64.801-52.531 117.334-117.335 117.334h-511.999zM202.662 703.999c0 29.455 23.878 53.334 53.334 53.334h511.999c29.455 0 53.335-23.878 53.335-53.334v-511.999c0-29.455-23.88-53.335-53.335-53.335h-511.999c-29.455 0-53.334 23.88-53.334 53.335v511.999z" />
<glyph unicode="kejar-round" glyph-name="kejar-round" d="M513.556 586.666h-225.555v-277.331h232.15c20.198 0 38.666-11.418 47.703-29.486l27.924-55.849h172.221c5.893 0 10.67 4.777 10.67 10.665v256.002c0 5.891-4.777 10.667-10.67 10.667h-178.816c-20.198 0-38.666 11.414-47.703 29.482l-27.924 55.851zM513.556 245.335h-225.555v-138.67c0-17.669-14.327-32-32-32s-32 14.331-32 32v615.187c-25.226 11.984-42.666 37.696-42.666 67.482 0 41.237 33.43 74.666 74.666 74.666s74.666-33.43 74.666-74.666c0-29.786-17.44-55.498-42.666-67.482v-71.185h232.15c20.198 0 38.666-11.414 47.703-29.482l27.924-55.851h172.221c41.236 0 74.67-33.43 74.67-74.667v-256.002c0-41.236-33.434-74.665-74.67-74.665h-178.816c-20.198 0-38.666 11.412-47.703 29.481l-27.924 55.854z" />
<glyph unicode="kejar-right" glyph-name="kejar-right" d="M404.039 747.96c12.496 12.497 32.758 12.497 45.255 0l277.331-277.334c12.498-12.497 12.498-32.759 0-45.257l-277.331-277.33c-12.497-12.498-32.758-12.498-45.255 0s-12.497 32.758 0 45.256l254.705 254.705-254.705 254.705c-12.497 12.497-12.497 32.758 0 45.255z" />
<glyph unicode="kejar-radio-button" glyph-name="kejar-radio-button" d="M682.667 448c0-94.255-76.412-170.667-170.667-170.667-94.257 0-170.667 76.412-170.667 170.667 0 94.257 76.41 170.667 170.667 170.667 94.255 0 170.667-76.41 170.667-170.667zM512 85.333c-200.295 0-362.667 162.372-362.667 362.667s162.371 362.667 362.667 362.667c200.294 0 362.667-162.371 362.667-362.667s-162.372-362.667-362.667-362.667zM512 21.333c235.639 0 426.667 191.027 426.667 426.667 0 235.642-191.027 426.667-426.667 426.667-235.642 0-426.667-191.025-426.667-426.667 0-235.639 191.025-426.667 426.667-426.667z" />
<glyph unicode="kejar-profile" glyph-name="kejar-profile" d="M512 448c-94.257 0-170.667 76.412-170.667 170.667 0 94.257 76.41 170.667 170.667 170.667 94.255 0 170.667-76.41 170.667-170.667 0-94.255-76.412-170.667-170.667-170.667zM512 512c58.91 0 106.667 47.756 106.667 106.667s-47.757 106.667-106.667 106.667c-58.91 0-106.667-47.756-106.667-106.667s47.757-106.667 106.667-106.667zM181.333 170.667c0 46.729 12.257 105.071 64.148 150.912 50.972 45.026 134.775 73.088 266.519 73.088 131.742 0 215.548-28.062 266.517-73.088 51.891-45.841 64.149-104.183 64.149-150.912v-21.333c0-17.673-14.327-32-32-32h-597.333c-17.673 0-32 14.327-32 32v21.333zM778.385 181.333c-1.754 32.457-12.105 65.66-42.236 92.279-34.364 30.353-99.891 57.054-224.149 57.054-124.256 0-189.786-26.701-224.148-57.054-30.131-26.62-40.483-59.823-42.237-92.279h532.77z" />
<glyph unicode="kejar-play" glyph-name="kejar-play" d="M405.333 265.929l286.434 182.276-286.434 181.925v-364.201zM754.347 484.275c26.453-17.067 26.453-55.467 0-72.107l-347.307-221.013c-28.587-18.347-65.707 2.133-65.707 35.84v442.028c0 33.707 37.12 54.187 65.707 35.84l347.307-220.588z" />
<glyph unicode="kejar-pilihan-ganda" glyph-name="kejar-pilihan-ganda" d="M746.67 106.854c-58.911 0-106.67 47.754-106.67 106.665s47.759 106.67 106.67 106.67c58.911 0 106.665-47.759 106.665-106.67s-47.754-106.665-106.665-106.665zM746.67 42.854c94.254 0 170.665 76.411 170.665 170.665 0 94.259-76.411 170.67-170.665 170.67-94.259 0-170.67-76.411-170.67-170.67 0-94.254 76.411-170.665 170.67-170.665zM746.67 576.187c-58.911 0-106.67 47.756-106.67 106.667s47.759 106.666 106.67 106.666c58.911 0 106.665-47.756 106.665-106.666s-47.754-106.667-106.665-106.667zM746.67 512.187c94.254 0 170.665 76.41 170.665 170.667s-76.411 170.666-170.665 170.666c-94.259 0-170.67-76.41-170.67-170.666s76.411-170.667 170.67-170.667zM277.336 576.187c-58.911 0-106.667 47.756-106.667 106.667s47.756 106.666 106.667 106.666c58.91 0 106.666-47.756 106.666-106.666s-47.756-106.667-106.666-106.667zM277.336 512.187c94.257 0 170.666 76.41 170.666 170.667s-76.41 170.666-170.666 170.666c-94.257 0-170.667-76.41-170.667-170.666s76.41-170.667 170.667-170.667zM445.414 298.772c12.497-12.498 12.497-30.167 0-42.66l-201.373-203.965c-12.497-12.493-32.758-12.493-45.255 0l-82.745 75.965c-12.496 12.498-12.497 30.172 0 42.67 12.497 12.493 30.17 12.493 42.667 0l62.706-50.749 181.334 178.739c12.496 12.498 30.17 12.498 42.666 0z" />
<glyph unicode="kejar-pilih-centang" glyph-name="kejar-pilih-centang" d="M341.338 736.001c-17.673 0-32-14.327-32-32s14.327-32 32-32h511.997c17.674 0 32 14.327 32 32s-14.326 32-32 32h-511.997zM341.338 480.001c-17.673 0-32-14.327-32-32 0-17.675 14.327-32.001 32-32.001h511.997c17.674 0 32 14.326 32 32.001 0 17.673-14.326 32-32 32h-511.997zM341.338 224c-17.673 0-32-14.326-32-32s14.327-32 32-32h511.997c17.674 0 32 14.326 32 32s-14.326 32-32 32h-511.997zM213.338 448.001c0-23.563-19.103-42.665-42.667-42.665s-42.666 19.103-42.666 42.665c0 23.564 19.103 42.666 42.666 42.666s42.667-19.102 42.667-42.666zM298.163 813.63c13.418-11.502 14.972-31.703 3.471-45.122l-128-149.334c-5.8-6.767-14.161-10.809-23.068-11.151s-17.552 3.046-23.855 9.349l-64 64c-12.497 12.496-12.497 32.758 0 45.255s32.758 12.497 45.255 0l39.565-39.565 105.511 123.097c11.502 13.418 31.703 14.972 45.122 3.471zM298.163 301.629c13.418-11.5 14.972-31.703 3.471-45.123l-128-149.33c-5.8-6.769-14.161-10.813-23.068-11.151-8.907-0.343-17.552 3.046-23.855 9.349l-64 64c-12.497 12.493-12.497 32.758 0 45.256 12.496 12.493 32.758 12.493 45.255 0l39.565-39.567 105.511 123.095c11.502 13.42 31.703 14.971 45.122 3.471z" />
<glyph unicode="kejar-photo" glyph-name="kejar-photo" d="M394.667 629.333c-23.564 0-42.667-19.103-42.667-42.667s19.103-42.667 42.667-42.667c23.564 0 42.667 19.103 42.667 42.667s-19.103 42.667-42.667 42.667zM288 586.667c0 58.91 47.756 106.667 106.667 106.667s106.667-47.756 106.667-106.667c0-58.91-47.757-106.667-106.667-106.667s-106.667 47.757-106.667 106.667zM853.333 182.519v530.962c0 41.719-34.133 75.852-75.853 75.852h-530.962c-41.719 0-75.852-34.133-75.852-75.852v-530.962c0-41.719 34.133-75.853 75.852-75.853h530.962c41.719 0 75.853 34.133 75.853 75.853zM682.786 488.41c-22.234 27.793-64.93 26.423-85.338-2.731l-108.996-155.703-63.143 75.772c-21.6 25.92-61.54 25.523-82.618-0.823l-108.024-135.031v443.589c0 6.372 5.48 11.852 11.852 11.852h530.962c6.374 0 11.853-5.48 11.853-11.852v-358.256l-106.547 133.184zM394.667 693.333c-58.91 0-106.667-47.756-106.667-106.667s47.756-106.667 106.667-106.667c58.91 0 106.667 47.757 106.667 106.667s-47.757 106.667-106.667 106.667zM785.677 257.344c1.131-1.412 2.355-2.701 3.657-3.87v-70.955c0-6.374-5.478-11.853-11.853-11.853h-530.962c-2.678 0-5.199 0.969-7.221 2.564l145.209 181.508 63.716-76.454c22.498-26.999 64.508-25.237 84.663 3.558l108.821 155.465 143.97-179.964zM394.667 629.333c23.564 0 42.667-19.103 42.667-42.667s-19.103-42.667-42.667-42.667c-23.564 0-42.667 19.103-42.667 42.667s19.103 42.667 42.667 42.667z" />
<glyph unicode="kejar-password" glyph-name="kejar-password" d="M618.667 320c0 71.113-67.392 106.667-106.667 106.667s-106.667-35.554-106.667-106.667c0-71.113 67.392-106.667 106.667-106.667s106.667 35.554 106.667 106.667zM554.667 320c0-13.026-5.444-22.549-15.1-30.438-5.129-4.19-11.063-7.484-16.823-9.643-6.029-2.266-9.954-2.586-10.743-2.586s-4.715 0.32-10.743 2.586c-5.76 2.159-11.695 5.453-16.823 9.643-9.655 7.889-15.1 17.412-15.1 30.438s5.444 22.549 15.1 30.438c5.129 4.19 11.063 7.484 16.823 9.643 6.029 2.266 9.954 2.586 10.743 2.586s4.715-0.32 10.743-2.586c5.76-2.159 11.695-5.453 16.823-9.643 9.655-7.889 15.1-17.412 15.1-30.438zM714.667 704c0 111.93-90.735 202.667-202.667 202.667-111.93 0-202.667-90.737-202.667-202.667v-96h-10.667c-64.801 0-117.333-52.532-117.333-117.333v-341.333c0-64.802 52.532-117.333 117.333-117.333h426.667c64.802 0 117.333 52.531 117.333 117.333v341.333c0 64.801-52.531 117.333-117.333 117.333h-10.667v96zM373.333 704c0 76.584 62.084 138.667 138.667 138.667s138.667-62.083 138.667-138.667v-96h-277.333v96zM298.667 544h426.667c29.457 0 53.333-23.876 53.333-53.333v-341.333c0-29.457-23.876-53.333-53.333-53.333h-426.667c-29.455 0-53.333 23.876-53.333 53.333v341.333c0 29.457 23.878 53.333 53.333 53.333z" />
<glyph unicode="kejar-open-book" glyph-name="kejar-open-book" d="M511.999 725.466c8.372 6.333 17.245 12.123 26.543 17.398 59.443 33.731 136.12 46.47 208.015 46.47h0.215c-71.834-0.026-148.419-12.772-207.805-46.47-9.375-5.32-18.324-11.163-26.757-17.56l-0.211 0.162zM277.225 789.333c71.836-0.026 148.418-12.772 207.804-46.47 9.376-5.32 18.323-11.163 26.756-17.56l0.214 0.162c-8.37 6.333-17.246 12.123-26.543 17.398-59.445 33.731-136.12 46.47-208.017 46.47h-0.214zM94.743 755.611c55.002 24.303 120.65 33.7 182.483 33.722h-0.214c-61.895 0-127.631-9.391-182.269-33.722zM148.527 112.333c-53.785-14.085-105.861 26.89-105.861 82.811 0-55.491 52.077-96.471 105.861-82.811zM277.439 127.698c66.59 0 137.449-11.095 194.649-39.27 2.53-1.285 5.098-2.442 7.698-3.471 10.325-4.081 21.145-6.129 32-6.134h0.424c10.86 0.005 21.678 2.053 32 6.134 2.601 1.029 5.171 2.186 7.7 3.471 57.201 28.175 128.056 39.27 194.647 39.27-66.591 0-137.446-10.67-194.647-39.27-2.673-1.336-5.386-2.534-8.125-3.594-10.332-3.988-21.074-5.99-31.786-6.011-10.712 0.020-21.455 2.022-31.786 6.011-2.74 1.060-5.451 2.258-8.125 3.594-57.2 28.6-128.058 39.27-194.649 39.27zM875.469 112.333c53.786-14.085 105.861 26.89 105.861 82.811 0-55.491-52.076-96.471-105.861-82.811zM929.254 755.611c-54.636 24.331-120.376 33.722-182.267 33.722h-0.215c61.834-0.022 127.483-9.419 182.482-33.722zM538.967 742.863c-9.375-5.32-18.324-11.163-26.757-17.56l-0.211 0.162-0.214-0.162c-8.433 6.397-17.38 12.239-26.756 17.56-59.386 33.697-135.968 46.444-207.804 46.47-61.833-0.022-127.481-9.419-182.483-33.722-31.161-14.086-52.077-44.393-52.077-78.969v-481.498c0-55.491 52.077-96.471 105.861-82.811 41.832 10.67 86.226 15.365 128.912 15.365 66.59 0 137.449-10.67 194.649-39.27 2.674-1.336 5.385-2.534 8.125-3.594 10.331-3.988 21.074-5.99 31.786-6.011 10.712 0.020 21.454 2.022 31.786 6.011 2.739 1.060 5.453 2.258 8.125 3.594 57.201 28.6 128.056 39.27 194.647 39.27 42.685 0 87.081-4.695 128.911-15.365 53.786-13.66 105.861 27.32 105.861 82.811v481.498c0 34.575-20.915 64.883-52.076 78.969-54.999 24.303-120.648 33.7-182.482 33.722-71.834-0.026-148.419-12.772-207.805-46.47zM544.21 669.875c2.299 1.327 4.531 2.807 6.682 4.441 45.742 34.701 118.825 51.018 196.096 51.018 56.381 0 112.333-8.688 156.032-28.098 9.641-4.413 14.31-12.781 14.31-20.593v-481.498c0-15.032-13.43-24.1-25.646-20.9l-0.394 0.102c-47.775 12.186-97.572 17.352-144.732 17.352-64.978 0-137.841-9.221-202.348-36.408v514.585zM479.785 669.875v-514.585c-64.506 27.187-137.369 36.408-202.346 36.408-47.161 0-96.957-5.166-144.732-17.352l-0.395-0.102c-12.217-3.2-25.647 5.868-25.647 20.9v481.498c0 7.813 4.672 16.18 14.312 20.593 43.7 19.41 99.652 28.098 156.034 28.098 77.267 0 150.35-16.316 196.093-51.018 2.154-1.634 4.386-3.114 6.681-4.441z" />
<glyph unicode="kejar-number" glyph-name="kejar-number" d="M106.668 784c-8.836 0-16-7.163-16-16s7.164-16 16-16h26.667v-112c0-8.837 7.164-16 16-16s16 7.163 16 16v128c0 8.837-7.163 16-16 16h-42.667zM106.668 272c-8.836 0-16-7.164-16-16s7.164-16 16-16h64c2.946 0 5.333-2.389 5.333-5.333v-26.667h-26.667c-8.836 0-16-7.164-16-16s7.164-16 16-16h26.667v-26.667c0-2.944-2.388-5.333-5.333-5.333h-64c-8.836 0-16-7.164-16-16s7.164-16 16-16h64c20.619 0 37.333 16.717 37.333 37.333v85.333c0 20.617-16.715 37.333-37.333 37.333h-64zM90.668 512c0 8.836 7.164 16 16 16h64c20.619 0 37.333-16.717 37.333-37.333v-37.333c0-8.393-3.952-16.299-10.667-21.333l-42.667-32h37.333c8.837 0 16-7.164 16-16s-7.163-16-16-16h-85.333c-6.887 0-13.001 4.407-15.179 10.94s0.070 13.73 5.579 17.86l78.933 59.2v34.667c0 2.944-2.388 5.333-5.333 5.333h-64c-8.836 0-16 7.164-16 16zM341.334 736c-17.673 0-32-14.327-32-32s14.327-32 32-32h511.999c17.673 0 32 14.327 32 32s-14.327 32-32 32h-511.999zM341.334 480c-17.673 0-32-14.327-32-32s14.327-32 32-32h511.999c17.673 0 32 14.327 32 32s-14.327 32-32 32h-511.999zM341.334 224c-17.673 0-32-14.327-32-32s14.327-32 32-32h511.999c17.673 0 32 14.327 32 32s-14.327 32-32 32h-511.999z" />
<glyph unicode="kejar-next" glyph-name="kejar-next" d="M490.667 477.083c15.36-16.094 15.36-42.114 0-58.477-1.899-2.028-4.032-3.901-6.4-5.591l-246.187-173.655c-28.586-19.625-67.413 0.425-67.413 34.985v347.308c0 34.56 38.826 54.614 67.413 34.986l246.187-174.080c2.368-1.649 4.501-3.487 6.4-5.476zM554.665 274.345v347.308c0 34.56 38.83 54.614 67.415 34.56l246.185-173.654c23.895-16.64 23.895-52.479 0-69.544l-246.185-173.655c-28.585-19.625-67.415 0.425-67.415 34.985zM618.665 580.301v-265.032l187.868 132.516-187.868 132.516zM234.667 315.269l187.895 132.536-187.895 132.864v-265.4z" />
<glyph unicode="kejar-mengurutkan-vertikal" glyph-name="kejar-mengurutkan-vertikal" d="M671.995 205.256v434.744c0 17.673 14.326 32 32 32s32-14.327 32-32v-434.744l94.705 94.705c12.498 12.498 32.758 12.498 45.256 0s12.498-32.758 0-45.256l-149.33-149.33c-12.498-12.498-32.758-12.498-45.256 0l-149.335 149.33c-12.498 12.498-12.498 32.758 0 45.256s32.758 12.498 45.256 0l94.705-94.705zM351.996 490.666v-256.002c0-17.669-14.327-32-32-32s-32 14.331-32 32v456.080l-94.706-94.706c-12.496-12.497-32.758-12.497-45.255 0s-12.497 32.758 0 45.255l149.334 149.333c12.496 12.497 32.758 12.497 45.255 0l149.334-149.333c12.496-12.497 12.496-32.758 0-45.255s-32.758-12.497-45.255 0l-94.706 94.706v-200.079z" />
<glyph unicode="kejar-mencocokkan" glyph-name="kejar-mencocokkan" d="M213.334 682.666c11.782 0 21.333 9.551 21.333 21.334s-9.551 21.334-21.333 21.334c-11.782 0-21.334-9.551-21.334-21.334s9.551-21.334 21.334-21.334zM213.334 426.665c11.782 0 21.333 9.554 21.333 21.335s-9.551 21.333-21.333 21.333c-11.782 0-21.334-9.551-21.334-21.333s9.551-21.335 21.334-21.335zM213.334 170.665c11.782 0 21.333 9.554 21.333 21.335s-9.551 21.335-21.333 21.335c-11.782 0-21.334-9.554-21.334-21.335s9.551-21.335 21.334-21.335zM213.334 618.666c47.128 0 85.333 38.205 85.333 85.334s-38.205 85.334-85.333 85.334c-47.129 0-85.334-38.205-85.334-85.334s38.205-85.334 85.334-85.334zM213.334 362.665c47.128 0 85.333 38.205 85.333 85.335 0 47.128-38.205 85.333-85.333 85.333s-85.334-38.205-85.334-85.333c0-47.13 38.205-85.335 85.334-85.335zM298.666 192c0-47.13-38.205-85.335-85.333-85.335s-85.334 38.205-85.334 85.335c0 47.13 38.205 85.335 85.334 85.335s85.333-38.205 85.333-85.335zM810.665 682.666c11.786 0 21.335 9.551 21.335 21.334s-9.549 21.334-21.335 21.334c-11.781 0-21.33-9.551-21.33-21.334s9.549-21.334 21.33-21.334zM810.665 426.665c11.786 0 21.335 9.554 21.335 21.335s-9.549 21.333-21.335 21.333c-11.781 0-21.33-9.551-21.33-21.333s9.549-21.335 21.33-21.335zM810.665 170.665c11.786 0 21.335 9.554 21.335 21.335s-9.549 21.335-21.335 21.335c-11.781 0-21.33-9.554-21.33-21.335s9.549-21.335 21.33-21.335zM810.665 618.666c47.13 0 85.335 38.205 85.335 85.334s-38.205 85.334-85.335 85.334c-47.124 0-85.33-38.205-85.33-85.334s38.205-85.334 85.33-85.334zM810.665 362.665c47.13 0 85.335 38.205 85.335 85.335 0 47.128-38.205 85.333-85.335 85.333-47.124 0-85.33-38.205-85.33-85.333 0-47.13 38.205-85.335 85.33-85.335zM896 192c0-47.13-38.205-85.335-85.335-85.335-47.124 0-85.33 38.205-85.33 85.335s38.205 85.335 85.33 85.335c47.13 0 85.335-38.205 85.335-85.335zM352 703.999c0 17.673 14.327 32 32 32h256c17.674 0 32-14.327 32-32s-14.326-32-32-32h-256c-17.673 0-32 14.327-32 32zM352 448c0 17.673 14.327 31.999 32 31.999h256c17.674 0 32-14.327 32-31.999 0-17.674-14.326-32-32-32h-256c-17.673 0-32 14.326-32 32zM352 192c0 17.674 14.327 32 32 32h256c17.674 0 32-14.326 32-32s-14.326-32-32-32h-256c-17.673 0-32 14.326-32 32z" />
<glyph unicode="kejar-mapel" glyph-name="kejar-mapel" d="M256 874.667h512c47.13 0 85.333-38.205 85.333-85.333v-682.667c0-47.13-38.204-85.333-85.333-85.333h-512c-47.128 0-85.333 38.204-85.333 85.333v682.667c0 47.128 38.205 85.333 85.333 85.333zM298.667 810.667h-42.667c-11.782 0-21.333-9.551-21.333-21.333v-682.667c0-11.78 9.551-21.333 21.333-21.333h512c11.78 0 21.333 9.553 21.333 21.333v682.667c0 11.782-9.553 21.333-21.333 21.333h-192v-309.333c0-11.089-5.743-21.389-15.177-27.221-9.434-5.828-21.214-6.362-31.134-1.399l-92.356 46.178-92.356-46.178c-9.92-4.962-21.7-4.429-31.134 1.399-9.434 5.833-15.177 16.132-15.177 27.221v309.333zM512 810.667h-149.333v-257.556l60.356 30.178c9.007 4.504 19.614 4.504 28.621 0l60.356-30.178v257.556z" />
<glyph unicode="kejar-log-out" glyph-name="kejar-log-out" d="M256 821.333c-64.801 0-117.333-52.532-117.333-117.333v-512c0-64.802 52.532-117.333 117.333-117.333h512c64.802 0 117.333 52.531 117.333 117.333v85.333c0 17.673-14.327 32-32 32s-32-14.327-32-32v-85.333c0-29.457-23.876-53.333-53.333-53.333h-512c-29.455 0-53.333 23.876-53.333 53.333v512c0 29.455 23.878 53.333 53.333 53.333h512c29.457 0 53.333-23.878 53.333-53.333v-85.333c0-17.673 14.327-32 32-32s32 14.327 32 32v85.333c0 64.801-52.531 117.333-117.333 117.333h-512zM709.559 619.961c-12.497 12.497-32.759 12.497-45.257 0-12.493-12.497-12.493-32.758 0-45.255l94.707-94.706h-392.078c-17.673 0-32-14.327-32-32s14.327-32 32-32h392.078l-94.707-94.707c-12.493-12.497-12.493-32.755 0-45.252 12.497-12.497 32.759-12.497 45.257 0l149.333 149.333c12.497 12.497 12.497 32.755 0 45.252l-149.333 149.335z" />
</font>
</defs>
</svg>
