<svg width="16" height="16" viewBox="0 0 16 16" fill="none" xmlns="http://www.w3.org/2000/svg">
    <path fill-rule="evenodd" clip-rule="evenodd" d="M7.37501 2.63388V10.5C7.37501 10.8452 7.65484 11.125 8.00001 11.125C8.34519 11.125 8.62501 10.8452 8.62501 10.5V2.63388L10.6831 4.69194C10.9271 4.93602 11.3229 4.93602 11.567 4.69194C11.811 4.44786 11.811 4.05214 11.567 3.80806L8.44195 0.683059C8.19788 0.43898 7.80215 0.43898 7.55807 0.683059L4.43307 3.80806C4.18899 4.05214 4.18899 4.44786 4.43307 4.69194C4.67715 4.93602 5.07288 4.93602 5.31695 4.69194L7.37501 2.63388ZM1.75013 8.625C1.75013 8.27982 1.4703 8 1.12513 8C0.779948 8 0.500126 8.27982 0.500126 8.625V13.625C0.500126 14.6605 1.33959 15.5 2.37513 15.5H13.625C14.6605 15.5 15.5 14.6605 15.5 13.625V8.625C15.5 8.27982 15.2202 8 14.875 8C14.5298 8 14.25 8.27982 14.25 8.625V13.625C14.25 13.9702 13.9702 14.25 13.625 14.25H2.37513C2.02995 14.25 1.75013 13.9702 1.75013 13.625V8.625Z">
</svg>